<svg xmlns="http://www.w3.org/2000/svg" xmlns:xlink="http://www.w3.org/1999/xlink" width="436" zoomAndPan="magnify" viewBox="0 0 327 282.749989" height="377" preserveAspectRatio="xMidYMid meet" version="1.0"><defs><g/><clipPath id="b4cce1fdd5"><path d="M 23.5 126.589844 L 282.28125 126.589844 L 282.28125 156.613281 L 23.5 156.613281 Z M 23.5 126.589844 " clip-rule="nonzero"/></clipPath></defs><g fill="#003c43" fill-opacity="1"><g transform="translate(149.669185, 198.268877)"><g><path d="M 86.984375 -107.828125 C 84.359375 -110.453125 80.96875 -112.703125 76.8125 -114.578125 C 72.65625 -116.460938 67.332031 -117.40625 60.84375 -117.40625 C 51.269531 -117.40625 42.921875 -115.691406 35.796875 -112.265625 C 28.679688 -108.847656 22.757812 -104.347656 18.03125 -98.765625 C 13.300781 -93.191406 9.738281 -86.816406 7.34375 -79.640625 C 4.957031 -72.460938 3.765625 -65.113281 3.765625 -57.59375 C 3.765625 -50.070312 4.957031 -42.75 7.34375 -35.625 C 9.738281 -28.507812 13.300781 -22.160156 18.03125 -16.578125 C 22.757812 -10.992188 28.679688 -6.492188 35.796875 -3.078125 C 42.921875 0.335938 51.210938 2.046875 60.671875 2.046875 C 64.992188 2.046875 68.835938 1.5625 72.203125 0.59375 C 75.566406 -0.375 78.472656 -1.539062 80.921875 -2.90625 C 83.367188 -4.269531 85.390625 -5.691406 86.984375 -7.171875 C 88.578125 -8.660156 89.773438 -9.914062 90.578125 -10.9375 L 97.40625 -1.203125 C 98.207031 -0.0546875 98.890625 0.515625 99.453125 0.515625 C 100.023438 0.515625 100.3125 -0.109375 100.3125 -1.359375 L 100.3125 -40.328125 C 100.3125 -41.804688 99.859375 -42.546875 98.953125 -42.546875 C 98.148438 -42.546875 97.578125 -41.804688 97.234375 -40.328125 C 96.890625 -38.503906 96.375 -36.253906 95.6875 -33.578125 C 95.007812 -30.898438 94.097656 -28.109375 92.953125 -25.203125 C 91.816406 -22.296875 90.363281 -19.390625 88.59375 -16.484375 C 86.832031 -13.585938 84.640625 -11 82.015625 -8.71875 C 79.398438 -6.4375 76.351562 -4.582031 72.875 -3.15625 C 69.40625 -1.738281 65.335938 -1.03125 60.671875 -1.03125 C 56.453125 -1.03125 52.832031 -1.65625 49.8125 -2.90625 C 46.789062 -4.15625 44.285156 -6.515625 42.296875 -9.984375 C 40.304688 -13.460938 38.851562 -18.332031 37.9375 -24.59375 C 37.03125 -30.863281 36.578125 -39.015625 36.578125 -49.046875 L 36.578125 -66.140625 C 36.578125 -76.273438 36.914062 -84.503906 37.59375 -90.828125 C 38.28125 -97.148438 39.535156 -102.046875 41.359375 -105.515625 C 43.179688 -108.992188 45.742188 -111.332031 49.046875 -112.53125 C 52.347656 -113.726562 56.675781 -114.328125 62.03125 -114.328125 C 66.25 -114.328125 70.007812 -113.613281 73.3125 -112.1875 C 76.613281 -110.757812 79.601562 -108.675781 82.28125 -105.9375 C 84.957031 -103.207031 87.320312 -99.90625 89.375 -96.03125 C 91.425781 -92.164062 93.304688 -87.78125 95.015625 -82.875 C 95.359375 -81.738281 95.984375 -81.171875 96.890625 -81.171875 C 97.691406 -81.171875 98.09375 -81.738281 98.09375 -82.875 L 98.09375 -113.125 C 98.09375 -114.945312 97.410156 -115.859375 96.046875 -115.859375 C 95.128906 -115.859375 94.273438 -115.347656 93.484375 -114.328125 Z M 86.984375 -107.828125 "/></g></g></g><g fill="#003c43" fill-opacity="1"><g transform="translate(58.952667, 198.621693)"><g><path d="M 71.171875 -117.171875 L 24.484375 -117.171875 L 24.484375 -114.390625 L 33.84375 -114.390625 L 33.84375 -7.296875 C 33.84375 -4.285156 33.695312 -1.507812 33.40625 1.03125 C 33.125 3.582031 32.546875 5.8125 31.671875 7.71875 C 30.804688 9.632812 29.617188 11.140625 28.109375 12.234375 C 26.609375 13.335938 24.585938 13.890625 22.046875 13.890625 C 19.265625 13.890625 16.921875 13.570312 15.015625 12.9375 C 13.109375 12.300781 12.15625 11.75 12.15625 11.28125 C 12.15625 10.820312 12.5 10.59375 13.1875 10.59375 C 16.894531 10.59375 19.703125 9.460938 21.609375 7.203125 C 23.523438 4.941406 24.484375 2.425781 24.484375 -0.34375 C 24.484375 -3.125 23.5 -5.695312 21.53125 -8.0625 C 19.5625 -10.4375 16.609375 -11.625 12.671875 -11.625 C 8.972656 -11.625 6.164062 -10.46875 4.25 -8.15625 C 2.34375 -5.84375 1.390625 -3.125 1.390625 0 C 1.390625 2.082031 1.789062 4.132812 2.59375 6.15625 C 3.40625 8.1875 4.679688 10.007812 6.421875 11.625 C 8.160156 13.25 10.359375 14.550781 13.015625 15.53125 C 15.679688 16.519531 18.863281 17.015625 22.5625 17.015625 C 35.175781 17.015625 44.867188 13.597656 51.640625 6.765625 C 58.410156 -0.0546875 61.796875 -10.53125 61.796875 -24.65625 L 61.796875 -114.390625 L 71.171875 -114.390625 Z M 71.171875 -117.171875 "/></g></g></g><g clip-path="url(#b4cce1fdd5)"><path fill="#ffffff" d="M 23.5 126.589844 L 282.339844 126.589844 L 282.339844 156.613281 L 23.5 156.613281 Z M 23.5 126.589844 " fill-opacity="1" fill-rule="nonzero"/></g><g fill="#003c43" fill-opacity="1"><g transform="translate(63.478795, 145.134563)"><g><path d="M 2.84375 0.15625 C 2.207031 0.15625 1.625 0.0390625 1.09375 -0.1875 C 0.5625 -0.425781 0.125 -0.765625 -0.21875 -1.203125 L 1 -2.65625 C 1.507812 -1.96875 2.085938 -1.625 2.734375 -1.625 C 3.628906 -1.625 4.078125 -2.144531 4.078125 -3.1875 L 4.078125 -7.65625 L 0.765625 -7.65625 L 0.765625 -9.40625 L 6.234375 -9.40625 L 6.234375 -3.3125 C 6.234375 -2.15625 5.945312 -1.285156 5.375 -0.703125 C 4.800781 -0.128906 3.957031 0.15625 2.84375 0.15625 Z M 2.84375 0.15625 "/></g></g></g><g fill="#003c43" fill-opacity="1"><g transform="translate(75.39299, 145.134563)"><g><path d="M 5.296875 0.15625 C 3.953125 0.15625 2.90625 -0.210938 2.15625 -0.953125 C 1.40625 -1.691406 1.03125 -2.753906 1.03125 -4.140625 L 1.03125 -9.40625 L 3.21875 -9.40625 L 3.21875 -4.21875 C 3.21875 -2.53125 3.914062 -1.6875 5.3125 -1.6875 C 5.988281 -1.6875 6.503906 -1.890625 6.859375 -2.296875 C 7.222656 -2.710938 7.40625 -3.351562 7.40625 -4.21875 L 7.40625 -9.40625 L 9.546875 -9.40625 L 9.546875 -4.140625 C 9.546875 -2.753906 9.171875 -1.691406 8.421875 -0.953125 C 7.679688 -0.210938 6.640625 0.15625 5.296875 0.15625 Z M 5.296875 0.15625 "/></g></g></g><g fill="#003c43" fill-opacity="1"><g transform="translate(90.624296, 145.134563)"><g><path d="M 8.40625 -1.75 L 8.40625 0 L 1.109375 0 L 1.109375 -9.40625 L 8.21875 -9.40625 L 8.21875 -7.65625 L 3.28125 -7.65625 L 3.28125 -5.609375 L 7.640625 -5.609375 L 7.640625 -3.921875 L 3.28125 -3.921875 L 3.28125 -1.75 Z M 8.40625 -1.75 "/></g></g></g><g fill="#003c43" fill-opacity="1"><g transform="translate(104.284333, 145.134563)"><g><path d="M 8.734375 -1.78125 L 8.734375 0 L 0.515625 0 L 0.515625 -1.40625 L 5.671875 -7.625 L 0.625 -7.625 L 0.625 -9.40625 L 8.53125 -9.40625 L 8.53125 -8 L 3.390625 -1.78125 Z M 8.734375 -1.78125 "/></g></g></g><g fill="#003c43" fill-opacity="1"><g transform="translate(117.94437, 145.134563)"><g/></g></g><g fill="#003c43" fill-opacity="1"><g transform="translate(126.393739, 145.134563)"><g><path d="M 5.609375 0.15625 C 4.648438 0.15625 3.785156 -0.0507812 3.015625 -0.46875 C 2.242188 -0.882812 1.632812 -1.460938 1.1875 -2.203125 C 0.75 -2.941406 0.53125 -3.773438 0.53125 -4.703125 C 0.53125 -5.628906 0.75 -6.460938 1.1875 -7.203125 C 1.632812 -7.941406 2.242188 -8.519531 3.015625 -8.9375 C 3.785156 -9.351562 4.65625 -9.5625 5.625 -9.5625 C 6.445312 -9.5625 7.1875 -9.414062 7.84375 -9.125 C 8.5 -8.84375 9.050781 -8.4375 9.5 -7.90625 L 8.109375 -6.609375 C 7.472656 -7.347656 6.679688 -7.71875 5.734375 -7.71875 C 5.148438 -7.71875 4.628906 -7.585938 4.171875 -7.328125 C 3.722656 -7.078125 3.367188 -6.722656 3.109375 -6.265625 C 2.859375 -5.804688 2.734375 -5.285156 2.734375 -4.703125 C 2.734375 -4.117188 2.859375 -3.597656 3.109375 -3.140625 C 3.367188 -2.679688 3.722656 -2.320312 4.171875 -2.0625 C 4.628906 -1.8125 5.148438 -1.6875 5.734375 -1.6875 C 6.679688 -1.6875 7.472656 -2.0625 8.109375 -2.8125 L 9.5 -1.515625 C 9.050781 -0.972656 8.492188 -0.554688 7.828125 -0.265625 C 7.171875 0.015625 6.429688 0.15625 5.609375 0.15625 Z M 5.609375 0.15625 "/></g></g></g><g fill="#003c43" fill-opacity="1"><g transform="translate(140.886413, 145.134563)"><g><path d="M 7.3125 -2.015625 L 2.9375 -2.015625 L 2.109375 0 L -0.125 0 L 4.078125 -9.40625 L 6.21875 -9.40625 L 10.421875 0 L 8.140625 0 Z M 6.625 -3.671875 L 5.140625 -7.265625 L 3.640625 -3.671875 Z M 6.625 -3.671875 "/></g></g></g><g fill="#003c43" fill-opacity="1"><g transform="translate(155.822268, 145.134563)"><g><path d="M 5.609375 0.15625 C 4.648438 0.15625 3.785156 -0.0507812 3.015625 -0.46875 C 2.242188 -0.882812 1.632812 -1.460938 1.1875 -2.203125 C 0.75 -2.941406 0.53125 -3.773438 0.53125 -4.703125 C 0.53125 -5.628906 0.75 -6.460938 1.1875 -7.203125 C 1.632812 -7.941406 2.242188 -8.519531 3.015625 -8.9375 C 3.785156 -9.351562 4.65625 -9.5625 5.625 -9.5625 C 6.445312 -9.5625 7.1875 -9.414062 7.84375 -9.125 C 8.5 -8.84375 9.050781 -8.4375 9.5 -7.90625 L 8.109375 -6.609375 C 7.472656 -7.347656 6.679688 -7.71875 5.734375 -7.71875 C 5.148438 -7.71875 4.628906 -7.585938 4.171875 -7.328125 C 3.722656 -7.078125 3.367188 -6.722656 3.109375 -6.265625 C 2.859375 -5.804688 2.734375 -5.285156 2.734375 -4.703125 C 2.734375 -4.117188 2.859375 -3.597656 3.109375 -3.140625 C 3.367188 -2.679688 3.722656 -2.320312 4.171875 -2.0625 C 4.628906 -1.8125 5.148438 -1.6875 5.734375 -1.6875 C 6.679688 -1.6875 7.472656 -2.0625 8.109375 -2.8125 L 9.5 -1.515625 C 9.050781 -0.972656 8.492188 -0.554688 7.828125 -0.265625 C 7.171875 0.015625 6.429688 0.15625 5.609375 0.15625 Z M 5.609375 0.15625 "/></g></g></g><g fill="#003c43" fill-opacity="1"><g transform="translate(170.314942, 145.134563)"><g><path d="M 9.75 -9.40625 L 9.75 0 L 7.5625 0 L 7.5625 -3.859375 L 3.296875 -3.859375 L 3.296875 0 L 1.109375 0 L 1.109375 -9.40625 L 3.296875 -9.40625 L 3.296875 -5.703125 L 7.5625 -5.703125 L 7.5625 -9.40625 Z M 9.75 -9.40625 "/></g></g></g><g fill="#003c43" fill-opacity="1"><g transform="translate(185.814835, 145.134563)"><g><path d="M 1.109375 -9.40625 L 3.296875 -9.40625 L 3.296875 0 L 1.109375 0 Z M 1.109375 -9.40625 "/></g></g></g><g fill="#003c43" fill-opacity="1"><g transform="translate(194.868536, 145.134563)"><g><path d="M 9.671875 0 L 9.65625 -5.640625 L 6.890625 -1 L 5.90625 -1 L 3.15625 -5.515625 L 3.15625 0 L 1.109375 0 L 1.109375 -9.40625 L 2.921875 -9.40625 L 6.4375 -3.5625 L 9.90625 -9.40625 L 11.6875 -9.40625 L 11.71875 0 Z M 9.671875 0 "/></g></g></g><g fill="#003c43" fill-opacity="1"><g transform="translate(212.342575, 145.134563)"><g><path d="M 8.015625 -4.890625 C 8.554688 -4.722656 8.976562 -4.4375 9.28125 -4.03125 C 9.59375 -3.632812 9.75 -3.144531 9.75 -2.5625 C 9.75 -1.738281 9.425781 -1.101562 8.78125 -0.65625 C 8.144531 -0.21875 7.210938 0 5.984375 0 L 1.109375 0 L 1.109375 -9.40625 L 5.71875 -9.40625 C 6.863281 -9.40625 7.738281 -9.1875 8.34375 -8.75 C 8.957031 -8.3125 9.265625 -7.710938 9.265625 -6.953125 C 9.265625 -6.503906 9.15625 -6.097656 8.9375 -5.734375 C 8.71875 -5.378906 8.410156 -5.097656 8.015625 -4.890625 Z M 3.28125 -7.765625 L 3.28125 -5.546875 L 5.4375 -5.546875 C 5.976562 -5.546875 6.382812 -5.640625 6.65625 -5.828125 C 6.9375 -6.015625 7.078125 -6.296875 7.078125 -6.671875 C 7.078125 -7.035156 6.9375 -7.304688 6.65625 -7.484375 C 6.382812 -7.671875 5.976562 -7.765625 5.4375 -7.765625 Z M 5.8125 -1.640625 C 6.382812 -1.640625 6.816406 -1.734375 7.109375 -1.921875 C 7.398438 -2.109375 7.546875 -2.398438 7.546875 -2.796875 C 7.546875 -3.578125 6.96875 -3.96875 5.8125 -3.96875 L 3.28125 -3.96875 L 3.28125 -1.640625 Z M 5.8125 -1.640625 "/></g></g></g><g fill="#003c43" fill-opacity="1"><g transform="translate(227.264995, 145.134563)"><g><path d="M 5.671875 0.15625 C 4.691406 0.15625 3.8125 -0.0507812 3.03125 -0.46875 C 2.25 -0.894531 1.632812 -1.472656 1.1875 -2.203125 C 0.75 -2.941406 0.53125 -3.773438 0.53125 -4.703125 C 0.53125 -5.628906 0.75 -6.457031 1.1875 -7.1875 C 1.632812 -7.925781 2.25 -8.503906 3.03125 -8.921875 C 3.8125 -9.347656 4.691406 -9.5625 5.671875 -9.5625 C 6.648438 -9.5625 7.523438 -9.347656 8.296875 -8.921875 C 9.078125 -8.503906 9.691406 -7.925781 10.140625 -7.1875 C 10.585938 -6.457031 10.8125 -5.628906 10.8125 -4.703125 C 10.8125 -3.773438 10.585938 -2.941406 10.140625 -2.203125 C 9.691406 -1.472656 9.078125 -0.894531 8.296875 -0.46875 C 7.523438 -0.0507812 6.648438 0.15625 5.671875 0.15625 Z M 5.671875 -1.6875 C 6.222656 -1.6875 6.722656 -1.8125 7.171875 -2.0625 C 7.617188 -2.320312 7.96875 -2.679688 8.21875 -3.140625 C 8.476562 -3.597656 8.609375 -4.117188 8.609375 -4.703125 C 8.609375 -5.285156 8.476562 -5.804688 8.21875 -6.265625 C 7.96875 -6.722656 7.617188 -7.078125 7.171875 -7.328125 C 6.722656 -7.585938 6.222656 -7.71875 5.671875 -7.71875 C 5.117188 -7.71875 4.617188 -7.585938 4.171875 -7.328125 C 3.722656 -7.078125 3.367188 -6.722656 3.109375 -6.265625 C 2.859375 -5.804688 2.734375 -5.285156 2.734375 -4.703125 C 2.734375 -4.117188 2.859375 -3.597656 3.109375 -3.140625 C 3.367188 -2.679688 3.722656 -2.320312 4.171875 -2.0625 C 4.617188 -1.8125 5.117188 -1.6875 5.671875 -1.6875 Z M 5.671875 -1.6875 "/></g></g></g></svg>