<svg width="627" height="603" viewBox="0 0 627 603" fill="none" xmlns="http://www.w3.org/2000/svg">
<path d="M585.012 380.892H379.658V266.648H585.012V380.892ZM380.911 379.687H583.759V267.853H380.911V379.687Z" fill="#E0E0E0"/>
<path d="M542.648 327.565H407.162V331.383H542.648V327.565Z" fill="#F0F0F0"/>
<path d="M551.983 341.803H407.162V345.971H551.983V341.803Z" fill="#F0F0F0"/>
<path d="M551.983 356.21H407.162V360.378H551.983V356.21Z" fill="#F0F0F0"/>
<path d="M454.512 306.882H407.162V316.796H454.512V306.882Z" fill="#F0F0F0"/>
<path d="M584.386 267.251H380.323V285.44H584.386V267.251Z" fill="#E0E0E0"/>
<path d="M568.686 282.718C568.422 282.477 571.054 279.429 574.55 275.912C578.046 272.395 581.115 269.732 581.366 269.961C581.617 270.19 578.998 273.25 575.502 276.779C572.006 280.309 568.936 282.959 568.686 282.718Z" fill="white"/>
<path d="M581.391 282.718C581.14 282.959 578.083 280.308 574.575 276.779C571.066 273.25 568.448 270.202 568.711 269.961C568.974 269.72 572.019 272.37 575.527 275.912C579.035 279.453 581.629 282.477 581.391 282.718Z" fill="white"/>
<path d="M332.32 41.0164H128.257V154.067H332.32V41.0164Z" fill="#E6E6E6"/>
<path d="M290.595 101.342H155.109V105.161H290.595V101.342Z" fill="#F0F0F0"/>
<path d="M299.93 115.581H155.109V119.748H299.93V115.581Z" fill="#F0F0F0"/>
<path d="M299.93 129.988H155.109V134.155H299.93V129.988Z" fill="#F0F0F0"/>
<path d="M202.459 80.6594H155.109V90.5732H202.459V80.6594Z" fill="#F0F0F0"/>
<path d="M128.889 58.5737V41.6484H331.688V58.5737H128.889Z" fill="#E0E0E0" stroke="black" stroke-width="1.264"/>
<path d="M315.931 56.3989C315.668 56.17 318.299 53.1103 321.795 49.5929C325.291 46.0755 328.361 43.4134 328.611 43.6543C328.862 43.8952 326.243 46.9428 322.747 50.4602C319.251 53.9777 316.181 56.6157 315.931 56.3989Z" fill="white"/>
<path d="M328.611 56.3989C328.361 56.6399 325.303 53.9898 321.795 50.4603C318.287 46.9309 315.668 43.8953 315.931 43.6544C316.194 43.4134 319.239 46.0635 322.747 49.593C326.256 53.1225 328.874 56.1701 328.611 56.3989Z" fill="white"/>
<path d="M255.035 251.025H49.719V136.769H255.035V251.025ZM50.972 249.82H253.782V137.974H50.972V249.82Z" fill="#E0E0E0"/>
<path d="M212.684 197.698H77.1972V201.516H212.684V197.698Z" fill="#F0F0F0"/>
<path d="M222.019 211.936H77.1972V216.104H222.019V211.936Z" fill="#F0F0F0"/>
<path d="M222.019 226.343H77.1972V230.511H222.019V226.343Z" fill="#F0F0F0"/>
<path d="M124.548 177.015H77.1972V186.929H124.548V177.015Z" fill="#F0F0F0"/>
<path d="M254.409 137.372H50.3455V155.561H254.409V137.372Z" fill="#E0E0E0"/>
<path d="M491.99 277.201H251.038V484.583H491.99V277.201Z" fill="#E6E6E6"/>
<path d="M263.155 211.876H74.403V400.406H263.155V211.876Z" fill="#F0F0F0"/>
<path d="M263.155 211.876H74.403V232.414H263.155V211.876Z" fill="#E0E0E0"/>
<path d="M89.9903 221.934C89.956 222.679 89.6949 223.398 89.2395 224.001C88.784 224.604 88.1543 225.066 87.4285 225.328C86.7026 225.591 85.9126 225.643 85.1565 225.477C84.4003 225.312 83.7113 224.937 83.175 224.398C82.6386 223.86 82.2786 223.182 82.1395 222.448C82.0004 221.715 82.0884 220.958 82.3925 220.272C82.6967 219.587 83.2036 219.002 83.8504 218.591C84.4972 218.179 85.2554 217.96 86.0309 217.959C87.1032 217.984 88.1216 218.417 88.8635 219.161C89.6054 219.906 90.0105 220.903 89.9903 221.934Z" fill="white"/>
<path d="M106.066 221.934C106.034 222.682 105.774 223.405 105.318 224.012C104.862 224.62 104.231 225.085 103.502 225.349C102.773 225.614 101.98 225.667 101.22 225.502C100.46 225.336 99.7676 224.959 99.2288 224.419C98.69 223.878 98.3286 223.196 98.1895 222.459C98.0504 221.722 98.1397 220.963 98.4465 220.274C98.7532 219.586 99.2638 218.999 99.9146 218.587C100.565 218.176 101.328 217.957 102.107 217.959C103.179 217.984 104.198 218.417 104.939 219.161C105.681 219.906 106.086 220.903 106.066 221.934Z" fill="white"/>
<path d="M122.142 221.934C122.11 222.682 121.85 223.405 121.394 224.012C120.938 224.62 120.307 225.085 119.578 225.349C118.849 225.614 118.055 225.667 117.296 225.502C116.536 225.336 115.844 224.959 115.305 224.419C114.766 223.878 114.404 223.196 114.265 222.459C114.126 221.722 114.216 220.963 114.522 220.274C114.829 219.586 115.34 218.999 115.99 218.587C116.641 218.176 117.404 217.957 118.183 217.959C119.255 217.984 120.273 218.417 121.015 219.161C121.757 219.906 122.162 220.903 122.142 221.934Z" fill="white"/>
<path d="M558.06 82.2495H317.109V313.122H558.06V82.2495Z" fill="#F0F0F0"/>
<path d="M558.06 82.2495H317.109V109.293H558.06V82.2495Z" fill="#E0E0E0"/>
<path d="M337.633 95.5C337.589 96.4831 337.245 97.4321 336.645 98.2292C336.044 99.0262 335.214 99.6362 334.256 99.9833C333.298 100.33 332.256 100.4 331.257 100.182C330.259 99.9643 329.349 99.4696 328.641 98.7592C327.933 98.0489 327.457 97.1541 327.273 96.1861C327.089 95.2181 327.205 94.2194 327.606 93.3141C328.007 92.4088 328.676 91.6368 329.53 91.0938C330.384 90.5509 331.384 90.2609 332.408 90.26C333.823 90.2916 335.167 90.8607 336.146 91.8428C337.125 92.8248 337.66 94.1398 337.633 95.5Z" fill="white"/>
<path d="M357.267 91.9586C357.962 92.6839 358.419 93.5895 358.582 94.5629C358.745 95.5362 358.607 96.5341 358.184 97.4323C357.761 98.3304 357.073 99.0891 356.205 99.6138C355.337 100.139 354.327 100.406 353.302 100.383C352.277 100.36 351.281 100.048 350.439 99.4845C349.598 98.9214 348.947 98.1327 348.568 97.2165C348.189 96.3004 348.099 95.2974 348.31 94.3324C348.52 93.3675 349.02 92.4833 349.749 91.79C350.771 90.8558 352.135 90.3489 353.545 90.3805C354.954 90.4122 356.293 90.9797 357.267 91.9586Z" fill="white"/>
<path d="M379.959 95.5C379.915 96.4831 379.571 97.4321 378.971 98.2292C378.371 99.0262 377.54 99.6362 376.582 99.9833C375.624 100.33 374.582 100.4 373.583 100.182C372.585 99.9643 371.675 99.4696 370.967 98.7592C370.259 98.0489 369.783 97.1541 369.599 96.1861C369.415 95.2181 369.531 94.2194 369.932 93.3141C370.333 92.4088 371.002 91.6368 371.856 91.0938C372.71 90.5509 373.71 90.2609 374.734 90.26C376.149 90.2916 377.493 90.8607 378.472 91.8428C379.451 92.8248 379.986 94.1398 379.959 95.5Z" fill="white"/>
<mask id="path-34-inside-1_14_922" fill="white">
<path d="M506.011 545.837C506.011 546.006 419.003 546.15 311.708 546.15C204.414 546.15 117.368 546.006 117.368 545.837C117.368 545.668 204.364 545.524 311.708 545.524C419.053 545.524 506.011 545.68 506.011 545.837Z"/>
</mask>
<path d="M506.011 545.837C506.011 546.006 419.003 546.15 311.708 546.15C204.414 546.15 117.368 546.006 117.368 545.837C117.368 545.668 204.364 545.524 311.708 545.524C419.053 545.524 506.011 545.68 506.011 545.837Z" fill="white"/>
<path d="M498.011 545.837C498.626 542.761 501.355 539.331 502.453 538.672C502.967 538.439 503.787 538.153 504.08 538.074C504.556 537.956 504.936 537.911 505.009 537.902C505.251 537.872 505.435 537.861 505.451 537.86C505.537 537.855 505.575 537.854 505.509 537.856C505.406 537.86 505.205 537.864 504.883 537.869C504.252 537.879 503.29 537.889 502 537.899C499.428 537.919 495.623 537.938 490.709 537.957C480.884 537.994 466.662 538.028 449.082 538.057C413.924 538.114 365.352 538.15 311.708 538.15V554.15C365.358 554.15 413.939 554.114 449.108 554.057C466.692 554.028 480.927 553.994 490.77 553.957C495.689 553.938 499.52 553.919 502.125 553.899C503.424 553.888 504.436 553.878 505.132 553.867C505.473 553.862 505.774 553.856 506.006 553.849C506.109 553.846 506.273 553.84 506.443 553.829C506.502 553.826 506.717 553.813 506.98 553.78C507.064 553.77 507.452 553.723 507.934 553.603C508.23 553.524 509.051 553.237 509.566 553.004C510.666 552.344 513.396 548.913 514.011 545.837H498.011ZM311.708 538.15C258.064 538.15 209.484 538.114 174.316 538.057C156.731 538.028 142.504 537.994 132.676 537.957C127.76 537.938 123.954 537.919 121.38 537.899C120.09 537.889 119.128 537.879 118.496 537.869C118.174 537.864 117.973 537.86 117.87 537.856C117.804 537.854 117.842 537.855 117.927 537.86C117.944 537.861 118.127 537.872 118.369 537.902C118.442 537.911 118.823 537.956 119.299 538.074C119.592 538.153 120.411 538.439 120.924 538.671C122.022 539.331 124.753 542.76 125.368 545.837H109.368C109.984 548.914 112.715 552.345 113.814 553.005C114.329 553.238 115.15 553.524 115.446 553.603C115.927 553.723 116.316 553.77 116.399 553.78C116.662 553.813 116.878 553.826 116.936 553.829C117.106 553.84 117.27 553.846 117.373 553.849C117.605 553.856 117.907 553.862 118.248 553.867C118.944 553.878 119.956 553.888 121.256 553.899C123.862 553.919 127.694 553.938 132.615 553.957C142.461 553.994 156.701 554.028 174.29 554.057C209.469 554.114 258.058 554.15 311.708 554.15V538.15ZM125.368 545.837C124.753 548.912 122.024 552.342 120.926 553.002C120.412 553.234 119.593 553.521 119.3 553.599C118.824 553.717 118.443 553.763 118.37 553.772C118.128 553.802 117.944 553.813 117.928 553.814C117.842 553.819 117.804 553.819 117.87 553.817C117.973 553.814 118.174 553.81 118.496 553.805C119.127 553.795 120.089 553.785 121.378 553.775C123.95 553.755 127.755 553.735 132.669 553.717C142.493 553.68 156.716 553.646 174.297 553.617C209.459 553.56 258.039 553.524 311.708 553.524V537.524C258.033 537.524 209.444 537.56 174.271 537.617C156.686 537.646 142.45 537.68 132.608 537.717C127.689 537.736 123.859 537.755 121.254 537.775C119.955 537.785 118.943 537.796 118.247 537.807C117.906 537.812 117.605 537.818 117.373 537.825C117.27 537.828 117.106 537.834 116.936 537.844C116.877 537.848 116.662 537.861 116.399 537.894C116.315 537.904 115.926 537.951 115.445 538.071C115.149 538.15 114.327 538.437 113.813 538.67C112.713 539.33 109.983 542.761 109.368 545.837H125.368ZM311.708 553.524C365.377 553.524 413.948 553.563 449.1 553.622C466.677 553.651 480.895 553.685 490.716 553.722C495.629 553.74 499.433 553.759 502.005 553.778C503.294 553.788 504.257 553.797 504.89 553.807C505.213 553.811 505.417 553.816 505.525 553.819C505.592 553.821 505.561 553.821 505.484 553.816C505.471 553.815 505.301 553.806 505.076 553.78C505.009 553.773 504.654 553.733 504.207 553.63C503.931 553.561 503.151 553.308 502.658 553.1C501.569 552.49 498.683 549.047 498.011 545.837H514.011C513.338 542.626 510.452 539.182 509.361 538.572C508.867 538.364 508.085 538.11 507.806 538.04C507.355 537.936 506.991 537.895 506.913 537.886C506.668 537.858 506.466 537.846 506.41 537.843C506.249 537.834 506.092 537.829 505.991 537.826C505.763 537.819 505.466 537.813 505.126 537.808C504.432 537.798 503.422 537.788 502.124 537.779C499.521 537.759 495.693 537.74 490.776 537.722C480.938 537.685 466.708 537.651 449.127 537.622C413.964 537.563 365.384 537.524 311.708 537.524V553.524Z" fill="white" mask="url(#path-34-inside-1_14_922)"/>
<path d="M421.233 398.371C401.874 385.373 397.489 361.245 398.253 339.551C398.378 335.937 397.965 332.106 399.757 328.938C401.548 325.77 405.733 323.59 409.104 325.107C411.898 326.372 413.113 329.504 414.68 332.094C416.77 335.544 419.832 338.354 423.513 340.201C425.907 341.406 428.876 342.128 431.244 340.876C434.502 339.153 434.878 334.853 434.853 331.239C434.853 324.517 434.811 317.804 434.728 311.098C434.503 307.497 434.883 303.885 435.855 300.401C437.021 296.98 439.614 293.812 443.16 292.849C446.706 291.885 451.129 293.872 451.931 297.39C452.069 298.88 452.107 300.376 452.044 301.871C452.144 303.377 452.871 305.027 454.337 305.485C455.803 305.942 457.332 304.894 458.459 303.834C462.319 300.221 464.95 295.511 467.393 290.861C469.837 286.211 472.23 281.429 475.738 277.466C479.247 273.503 484.096 270.359 489.521 270.058C494.947 269.756 500.598 272.961 501.951 278.02C503.304 283.079 500.234 288.247 496.939 292.355C491.966 298.452 486.105 303.828 479.535 308.315C478.252 308.989 477.229 310.04 476.615 311.315C475.801 313.724 478.169 316.133 480.638 316.892C483.432 317.784 486.464 317.506 489.409 317.844C492.353 318.181 495.486 319.41 496.601 322.06C498.129 325.746 494.922 329.601 491.777 332.13C485.462 337.19 478.291 341.17 470.576 343.899C467.819 344.863 464.925 345.718 462.695 347.573C460.464 349.428 459.136 352.669 460.477 355.21C461.818 357.752 465.263 358.559 468.158 358.041C471.052 357.523 473.621 356.029 476.377 355.03C481.527 353.162 488.168 353.5 491.413 357.776C492.419 359.249 493.055 360.926 493.273 362.676C493.49 364.425 493.282 366.199 492.666 367.858C491.412 371.161 489.482 374.188 486.99 376.76C478.784 386.187 468.121 393.349 456.091 397.516C444.15 401.491 433.086 402.575 421.22 398.395" fill="#D3EEFF"/>
<path d="M496.438 273.033C496.438 273.033 496.325 273.153 496.075 273.37L494.959 274.322C493.982 275.165 492.541 276.394 490.724 278.02C485.573 282.618 480.79 287.583 476.415 292.873C473.621 296.209 470.726 299.992 467.644 304.099C464.562 308.207 461.379 312.64 458.222 317.35C454.855 322.317 451.772 327.456 448.987 332.745C447.533 335.503 446.255 338.382 444.94 341.321L441.055 350.295C435.935 361.599 431.476 373.169 427.699 384.952C424.656 394.592 422.558 404.484 421.434 414.5C420.705 421.26 420.587 428.067 421.083 434.846C421.283 437.255 421.471 439.098 421.647 440.351C421.722 440.953 421.772 441.435 421.822 441.784V442.278C421.768 442.121 421.73 441.96 421.709 441.796C421.647 441.447 421.571 440.977 421.471 440.375C421.246 439.17 421.008 437.267 420.782 434.858C420.177 428.066 420.219 421.236 420.907 414.452C421.962 404.393 424.014 394.455 427.034 384.771C430.78 372.956 435.227 361.357 440.354 350.03L444.338 341.092C445.654 338.165 446.945 335.262 448.411 332.492C451.215 327.187 454.323 322.035 457.72 317.061C460.928 312.242 464.161 307.882 467.206 303.81C470.25 299.739 473.195 295.932 475.977 292.608C480.396 287.332 485.243 282.402 490.474 277.863C492.328 276.261 493.807 275.057 494.809 274.25L495.974 273.346C496.117 273.227 496.273 273.122 496.438 273.033Z" fill="#263238"/>
<path d="M448.573 332.467C448.397 331.971 448.275 331.458 448.21 330.938C448.009 329.938 447.784 328.528 447.521 326.697C446.982 323.084 446.431 318.133 445.842 312.652C445.253 307.171 444.589 302.208 444.037 298.63C443.749 296.848 443.499 295.414 443.323 294.414C443.186 293.903 443.115 293.377 443.11 292.848C443.326 293.331 443.482 293.836 443.574 294.354C443.85 295.342 444.163 296.763 444.514 298.558C445.228 302.172 445.929 307.087 446.518 312.58C447.107 318.073 447.609 322.891 447.997 326.637C448.185 328.324 448.348 329.757 448.473 330.901C448.57 331.418 448.604 331.943 448.573 332.467Z" fill="#263238"/>
<path d="M496.789 323.819C496.179 323.946 495.558 324.019 494.934 324.035C493.681 324.144 491.902 324.288 489.697 324.529C485.286 324.987 479.222 325.83 472.568 327.035C465.915 328.239 459.938 329.601 455.64 330.649C453.498 331.179 451.769 331.661 450.628 331.986C450.019 332.194 449.389 332.339 448.749 332.419C449.328 332.139 449.932 331.91 450.553 331.733C451.731 331.335 453.435 330.781 455.565 330.191C459.838 328.986 465.815 327.553 472.493 326.324C478.15 325.284 483.859 324.52 489.596 324.035C491.814 323.855 493.606 323.782 494.859 323.758C495.503 323.716 496.149 323.737 496.789 323.819Z" fill="#263238"/>
<path d="M427.648 383.928C427.515 383.753 427.405 383.563 427.323 383.362L426.496 381.687C425.781 380.23 424.817 378.073 423.664 375.435C421.333 370.135 418.364 362.715 415.206 354.475C412.049 346.236 409.142 338.816 406.936 333.455C405.859 330.853 404.969 328.721 404.305 327.131L403.603 325.409C403.506 325.21 403.439 324.999 403.403 324.782C403.536 324.957 403.646 325.147 403.729 325.348L404.556 327.023C405.257 328.48 406.235 330.637 407.387 333.275C409.718 338.575 412.688 345.995 415.845 354.235C419.003 362.474 421.91 369.894 424.115 375.255C425.192 377.857 426.082 379.989 426.734 381.579C427.022 382.265 427.26 382.783 427.448 383.301C427.545 383.5 427.613 383.711 427.648 383.928Z" fill="#263238"/>
<path d="M491.651 364.088C491.451 364.199 491.236 364.284 491.012 364.341L489.158 364.943L482.304 367.076C476.515 368.882 468.521 371.46 459.75 374.303C450.979 377.146 442.947 379.676 437.121 381.362C434.214 382.217 431.846 382.868 430.204 383.301L428.312 383.771C428.092 383.838 427.866 383.883 427.636 383.904C427.836 383.793 428.051 383.708 428.275 383.651L430.129 383.048L436.983 380.916C442.772 379.109 450.766 376.532 459.537 373.689C468.308 370.846 476.327 368.316 482.154 366.63C485.073 365.775 487.429 365.124 489.083 364.69L490.975 364.221C491.195 364.153 491.422 364.109 491.651 364.088Z" fill="#263238"/>
<path d="M458.775 74.742L458.613 74.2681L455.844 66.1612L455.843 66.1606C450.845 51.4737 434.916 43.6741 420.278 48.6331C405.647 53.59 397.849 69.6967 402.848 84.3886L458.775 74.742ZM458.775 74.742L459.248 74.5793L465.697 72.3642C465.698 72.364 465.699 72.3638 465.699 72.3636C466.863 71.9749 468.096 71.8152 469.326 71.8945C470.556 71.9737 471.756 72.2904 472.855 72.825C473.954 73.3596 474.928 74.1009 475.72 75.0036C476.512 75.9062 477.106 76.9519 477.467 78.0777L477.467 78.0778L477.47 78.0862L495.438 130.835L495.44 130.841C496.259 133.152 496.115 135.679 495.035 137.89C493.956 140.101 492.025 141.83 489.642 142.707C489.64 142.707 489.639 142.708 489.637 142.708L422.784 165.697C422.782 165.698 422.781 165.698 422.779 165.699C421.611 166.074 420.376 166.221 419.148 166.129C417.918 166.037 416.72 165.709 415.626 165.164C414.532 164.619 413.565 163.869 412.781 162.959C411.997 162.049 411.412 160.998 411.06 159.869L411.06 159.869L411.056 159.857L393.1 107.108L393.099 107.104C392.3 104.816 392.448 102.32 393.515 100.133C394.581 97.9473 396.484 96.2347 398.835 95.3563L405.307 93.13L405.779 92.9677L405.618 92.4955L402.849 84.3892L458.775 74.742ZM452.75 127.324L457.216 140.439L457.22 140.451L457.22 140.451C457.344 140.849 457.304 141.278 457.109 141.646C456.914 142.013 456.584 142.289 456.19 142.422L456.191 142.422L452.75 127.324ZM452.75 127.324C454.637 125.63 455.999 123.459 456.677 121.054C457.385 118.543 457.316 115.887 456.479 113.413C455.976 111.825 455.148 110.351 454.042 109.079C452.936 107.806 451.575 106.762 450.042 106.006C448.509 105.251 446.834 104.801 445.117 104.682C443.401 104.563 441.677 104.777 440.047 105.312L440.039 105.315L440.03 105.318C436.738 106.533 434.057 108.927 432.553 112.006C431.049 115.083 430.841 118.602 431.974 121.824C432.769 124.265 434.319 126.411 436.414 127.977C438.42 129.477 440.835 130.378 443.36 130.573L447.873 143.661L452.75 127.324ZM424.134 59.9112L424.125 59.914L424.117 59.9171C420.014 61.4325 416.675 64.4177 414.805 68.2532C412.934 72.0886 412.679 76.4729 414.094 80.4858C414.095 80.4867 414.095 80.4876 414.095 80.4885L416.85 88.59L417.012 89.0651L417.486 88.9019L447.044 78.7351L447.515 78.573L447.355 78.1013L444.6 69.9998C443.976 68.0218 442.945 66.1862 441.568 64.6018C440.191 63.016 438.496 61.7144 436.586 60.7737C434.676 59.833 432.59 59.2722 430.451 59.1241C428.312 58.976 426.164 59.2436 424.134 59.9112ZM449.763 144.626L456.189 142.423L447.875 143.666L447.874 143.664C447.998 144.033 448.263 144.336 448.608 144.515C448.953 144.694 449.354 144.737 449.73 144.637L449.746 144.632L449.763 144.626Z" fill="#D3EEFF" stroke="black"/>
<path d="M458.798 73.9618C458.798 74.1304 446.832 78.4549 431.946 83.5985C417.06 88.7421 404.919 92.8739 404.856 92.7534C404.793 92.633 416.822 88.2724 431.72 83.1167C446.619 77.961 458.735 73.8052 458.798 73.9618Z" fill="#263238"/>
<path d="M473.007 76.1785C473.062 76.283 473.108 76.3918 473.144 76.5037C473.245 76.7446 473.357 77.0578 473.508 77.4433C473.834 78.3226 474.285 79.5393 474.849 81.0571L479.66 94.5244C481.665 100.234 484.058 107.004 486.714 114.521C487.967 118.291 489.446 122.218 490.824 126.35C491.562 128.479 491.881 130.722 491.764 132.963C491.658 134.129 491.313 135.263 490.749 136.3C490.147 137.333 489.343 138.245 488.381 138.986C486.445 140.344 484.296 141.398 482.016 142.106L475.563 144.334L463.346 148.538L442.659 155.621L428.688 160.343L424.929 161.548L423.927 161.861C423.82 161.907 423.705 161.935 423.588 161.945C423.588 161.945 423.689 161.945 423.902 161.801L424.879 161.427L428.638 160.066L442.534 155.152L463.183 147.924L475.375 143.684L481.828 141.443C484.044 140.764 486.13 139.743 488.005 138.42C488.9 137.733 489.649 136.886 490.21 135.926C490.741 134.967 491.061 133.913 491.15 132.83C491.265 130.671 490.959 128.51 490.248 126.458C488.895 122.363 487.466 118.399 486.176 114.629C483.569 107.1 481.164 100.306 479.259 94.5967C477.355 88.8869 475.751 84.2974 474.648 81.0691C474.122 79.4911 473.721 78.2624 473.395 77.371L473.094 76.4073C473.057 76.3343 473.027 76.2576 473.007 76.1785Z" fill="#263238"/>
<path d="M437.722 59.5669C437.722 59.5669 437.058 59.2537 435.83 58.7719C434.08 58.1253 432.229 57.767 430.355 57.7118C427.577 57.6203 424.812 58.1222 422.26 59.1814C419.157 60.5004 416.504 62.6339 414.604 65.3369C412.693 68.0322 411.667 71.2174 411.66 74.4798C411.686 77.1536 412.108 79.8103 412.913 82.3698C413.564 84.5622 414.241 86.3089 414.692 87.5255C414.958 88.1435 415.176 88.7796 415.344 89.4287C414.988 88.851 414.69 88.2419 414.454 87.6098C413.94 86.4052 413.201 84.6947 412.474 82.4903C411.582 79.9039 411.097 77.204 411.033 74.4798C411 71.0942 412.05 67.7805 414.041 64.9876C416.006 62.1858 418.768 59.9864 421.997 58.6514C424.629 57.5864 427.479 57.1165 430.33 57.2782C432.244 57.372 434.125 57.8006 435.88 58.543C436.35 58.7511 436.802 58.9927 437.234 59.2658C437.412 59.341 437.577 59.4426 437.722 59.5669Z" fill="#263238"/>
<path d="M438.299 106.703C438.499 106.586 438.708 106.486 438.925 106.402C439.552 106.13 440.202 105.908 440.867 105.739C441.923 105.439 443.013 105.262 444.113 105.209C445.608 105.132 447.105 105.349 448.511 105.848C451.718 106.932 454.663 110.076 456.116 114.28C456.813 116.536 456.813 118.938 456.116 121.194C455.343 123.643 453.958 125.872 452.082 127.687L452.157 127.362C453.823 131.758 455.64 136.528 457.52 141.503L457.632 141.805L457.319 141.913L454.45 142.828L448.185 144.84L447.872 144.937L447.771 144.635C446.055 139.648 444.175 134.999 442.759 130.433L443.035 130.638C440.585 130.442 438.25 129.559 436.319 128.096C434.572 126.803 433.139 125.158 432.121 123.278C431.203 121.61 430.745 119.744 430.793 117.857C430.851 115.929 431.352 114.037 432.26 112.317C433.167 110.597 434.459 109.091 436.043 107.907C436.695 107.399 437.427 106.992 438.211 106.703C437.503 107.107 436.817 107.545 436.156 108.016C434.416 109.431 433.083 111.252 432.284 113.304C431.599 114.851 431.278 116.526 431.345 118.206C431.412 119.887 431.866 121.533 432.673 123.025C433.674 124.834 435.072 126.412 436.77 127.651C438.612 129.04 440.839 129.878 443.173 130.06H443.386L443.448 130.241C444.827 134.722 446.719 139.407 448.46 144.419L448.047 144.226L454.312 142.214L457.169 141.287L456.968 141.696C455.101 136.721 453.297 131.939 451.643 127.542V127.362L451.793 127.217C453.615 125.477 454.973 123.341 455.753 120.989C456.417 118.831 456.417 116.534 455.753 114.376C454.387 110.329 451.568 107.257 448.511 106.173C447.157 105.671 445.712 105.438 444.263 105.486C443.181 105.51 442.105 105.651 441.055 105.908C439.188 106.353 438.311 106.763 438.299 106.703Z" fill="#263238"/>
<path d="M399.569 454.517L274.407 453.963C267.179 453.924 260.262 451.13 255.176 446.192C250.089 441.255 247.249 434.579 247.279 427.63L248.607 125.988C248.622 122.546 249.343 119.14 250.727 115.965C252.112 112.79 254.134 109.908 256.678 107.485C259.222 105.062 262.237 103.145 265.552 101.843C268.867 100.541 272.417 99.8794 275.998 99.8968L401.147 100.451C408.375 100.486 415.293 103.278 420.382 108.213C425.471 113.148 428.314 119.822 428.287 126.771L426.959 428.401C426.944 431.845 426.224 435.252 424.84 438.428C423.455 441.605 421.433 444.488 418.89 446.913C416.346 449.338 413.331 451.257 410.016 452.562C406.701 453.867 403.151 454.531 399.569 454.517Z" fill="#455A64"/>
<path d="M400.959 110.822H376.701C375.91 110.837 375.129 111 374.403 111.305C373.678 111.609 373.022 112.048 372.472 112.596C371.923 113.144 371.492 113.791 371.203 114.499C370.913 115.208 370.772 115.964 370.787 116.725V120.953C370.802 121.713 370.661 122.469 370.372 123.177C370.082 123.885 369.651 124.531 369.101 125.078C368.552 125.625 367.896 126.063 367.17 126.366C366.445 126.669 365.664 126.831 364.873 126.844L317.585 126.639C315.985 126.598 314.468 125.948 313.366 124.832C312.264 123.717 311.668 122.226 311.708 120.688V116.46C311.749 114.924 311.154 113.435 310.055 112.32C308.956 111.204 307.442 110.553 305.844 110.509H297.311L276.073 110.413C271.022 110.384 266.164 112.281 262.564 115.688C258.964 119.094 256.914 123.734 256.865 128.59L255.612 423.017C255.6 425.426 256.082 427.814 257.031 430.044C257.979 432.274 259.375 434.302 261.139 436.014C262.903 437.725 265 439.086 267.311 440.018C269.622 440.95 272.101 441.436 274.607 441.447L399.506 442.001C402.014 442.012 404.499 441.548 406.82 440.636C409.142 439.724 411.253 438.381 413.034 436.684C414.816 434.987 416.232 432.969 417.202 430.746C418.173 428.523 418.678 426.138 418.689 423.727L419.942 129.301C419.972 124.431 417.99 119.749 414.43 116.284C410.87 112.819 406.025 110.854 400.959 110.822Z" fill="white"/>
<path d="M384.157 402.719L291.284 402.334C290.32 402.334 289.543 401.322 289.555 400.093L289.656 376.736C289.656 375.532 290.445 374.496 291.41 374.496L384.282 374.905C384.817 374.994 385.295 375.278 385.617 375.698C385.939 376.117 386.08 376.64 386.011 377.158L385.923 400.491C385.923 401.731 385.121 402.731 384.157 402.719Z" fill="#D3EEFF"/>
<path d="M319.048 391.299C318.841 391.142 318.79 390.983 318.898 390.822L319.284 390.24C319.411 390.049 319.597 390.039 319.841 390.21C320.028 390.34 320.273 390.476 320.574 390.616C320.878 390.754 321.198 390.822 321.532 390.822C321.766 390.822 321.992 390.795 322.21 390.742C322.427 390.688 322.593 390.585 322.707 390.431C322.82 390.277 322.877 390.095 322.877 389.884C322.877 389.733 322.852 389.601 322.802 389.487C322.752 389.374 322.67 389.28 322.556 389.206C322.442 389.133 322.325 389.071 322.205 389.021C321.994 388.934 321.728 388.848 321.407 388.765C321.089 388.678 320.774 388.574 320.463 388.453C320.186 388.346 319.931 388.199 319.7 388.012C319.47 387.824 319.291 387.614 319.164 387.379C319.036 387.145 318.973 386.832 318.973 386.441C318.973 385.976 319.123 385.578 319.424 385.247C319.726 384.915 320.072 384.703 320.463 384.609C320.855 384.516 321.25 384.469 321.648 384.469C322.042 384.469 322.449 384.529 322.867 384.649C323.289 384.77 323.607 384.92 323.821 385.101C324.031 385.278 324.083 385.439 323.976 385.583L323.57 386.13C323.433 386.317 323.249 386.332 323.018 386.175C322.871 386.075 322.668 385.963 322.41 385.839C322.156 385.715 321.89 385.653 321.613 385.653C321.415 385.653 321.233 385.67 321.066 385.703C320.902 385.737 320.756 385.817 320.629 385.944C320.502 386.071 320.438 386.229 320.438 386.416C320.438 386.597 320.485 386.744 320.579 386.858C320.672 386.968 320.776 387.052 320.89 387.108C321.004 387.162 321.119 387.207 321.236 387.244C321.597 387.361 321.92 387.465 322.205 387.555C322.489 387.642 322.752 387.739 322.993 387.846C323.327 387.997 323.583 388.147 323.76 388.298C323.938 388.448 324.083 388.654 324.197 388.915C324.314 389.176 324.373 389.487 324.373 389.849C324.373 390.384 324.202 390.827 323.861 391.179C323.52 391.526 323.14 391.751 322.722 391.851C322.307 391.955 321.902 392.007 321.507 392.007C320.925 392.007 320.452 391.95 320.087 391.836C319.722 391.726 319.376 391.547 319.048 391.299ZM325.878 391.836C325.644 391.836 325.527 391.71 325.527 391.46V385.016C325.527 384.765 325.644 384.639 325.878 384.639H326.641C326.875 384.639 326.992 384.765 326.992 385.016V391.46C326.992 391.71 326.875 391.836 326.641 391.836H325.878ZM328.95 391.836C328.715 391.836 328.598 391.71 328.598 391.46V385.016C328.598 384.765 328.715 384.639 328.95 384.639H329.692C329.98 384.639 330.198 384.756 330.345 384.991L332.904 389.101H332.939C332.923 388.9 332.914 388.699 332.914 388.499V385.016C332.914 384.765 333.031 384.639 333.266 384.639H334.028C334.263 384.639 334.38 384.765 334.38 385.016V391.46C334.38 391.71 334.263 391.836 334.028 391.836H333.336C333.048 391.836 332.831 391.719 332.683 391.485L330.074 387.299H330.039C330.055 387.5 330.064 387.701 330.064 387.901V391.46C330.064 391.71 329.947 391.836 329.712 391.836H328.95ZM335.614 388.238C335.614 387.083 335.915 386.167 336.518 385.487C337.12 384.808 337.973 384.469 339.077 384.469C339.743 384.469 340.265 384.554 340.643 384.725C341.024 384.895 341.359 385.16 341.647 385.518C341.82 385.735 341.815 385.904 341.631 386.024L341.059 386.396C340.892 386.506 340.713 386.458 340.522 386.25C340.365 386.08 340.166 385.937 339.925 385.824C339.684 385.71 339.418 385.653 339.127 385.653C338.425 385.653 337.924 385.876 337.627 386.321C337.329 386.762 337.18 387.401 337.18 388.238C337.18 389.074 337.329 389.715 337.627 390.16C337.924 390.601 338.425 390.822 339.127 390.822C339.468 390.822 339.763 390.789 340.01 390.722C340.258 390.652 340.492 390.526 340.713 390.345V389.447H339.624C339.373 389.447 339.248 389.338 339.248 389.121V388.529C339.248 388.311 339.373 388.203 339.624 388.203H341.802C342.053 388.203 342.178 388.311 342.178 388.529V391.078C341.71 391.423 341.237 391.664 340.758 391.801C340.283 391.938 339.723 392.007 339.077 392.007C337.99 392.007 337.14 391.667 336.528 390.988C335.919 390.309 335.614 389.392 335.614 388.238ZM347.056 388.84V384.915C347.056 384.731 347.174 384.639 347.408 384.639H348.171C348.405 384.639 348.522 384.731 348.522 384.915V388.79C348.522 389.693 348.654 390.258 348.918 390.486C349.186 390.71 349.487 390.822 349.822 390.822C350.156 390.822 350.456 390.71 350.72 390.486C350.988 390.258 351.121 389.693 351.121 388.79V384.915C351.121 384.731 351.239 384.639 351.473 384.639H352.236C352.47 384.639 352.587 384.731 352.587 384.915V388.84C352.587 390.011 352.339 390.832 351.844 391.304C351.349 391.772 350.675 392.007 349.822 392.007C348.969 392.007 348.294 391.772 347.799 391.304C347.304 390.832 347.056 390.011 347.056 388.84ZM354.544 391.836C354.31 391.836 354.193 391.71 354.193 391.46V385.016C354.193 384.765 354.31 384.639 354.544 384.639H356.421C357.625 384.639 358.46 384.835 358.925 385.227C359.394 385.618 359.628 386.173 359.628 386.893C359.628 387.612 359.394 388.167 358.925 388.559C358.46 388.95 357.625 389.146 356.421 389.146H355.658V391.46C355.658 391.71 355.541 391.836 355.307 391.836H354.544ZM355.658 387.921H356.416C357.085 387.921 357.54 387.843 357.781 387.686C358.022 387.525 358.142 387.261 358.142 386.893C358.142 386.525 358.022 386.262 357.781 386.105C357.54 385.944 357.085 385.864 356.416 385.864H355.658V387.921Z" fill="#003C43"/>
<path d="M309.809 197.373L277.582 197.232L277.555 202.918L309.782 203.058L309.809 197.373Z" fill="#D3EEFF"/>
<path opacity="0.1" d="M309.809 197.373L277.582 197.232L277.555 202.918L309.782 203.058L309.809 197.373Z" fill="black"/>
<path d="M404.28 232.281C404.533 232.257 404.782 232.2 405.019 232.113C405.366 231.982 405.668 231.761 405.889 231.473C406.111 231.185 406.244 230.844 406.272 230.487C406.272 228.571 406.272 225.777 406.272 222.187C406.272 220.392 406.272 218.38 406.272 216.164C406.272 215.622 406.272 215.056 406.272 214.49C406.354 213.94 406.229 213.381 405.921 212.912C405.749 212.687 405.524 212.503 405.266 212.376C405.007 212.248 404.721 212.18 404.43 212.177H402.476H384.37L279.569 211.803C279.301 211.799 279.035 211.857 278.795 211.972C278.556 212.088 278.348 212.257 278.191 212.466C277.888 212.937 277.773 213.497 277.865 214.044C277.865 215.249 277.865 216.453 277.865 217.658C277.865 220.067 277.865 222.476 277.865 224.885C277.865 226.09 277.865 227.294 277.865 228.499C277.813 229.06 277.813 229.624 277.865 230.185C277.931 230.426 278.053 230.649 278.223 230.837C278.392 231.025 278.604 231.173 278.842 231.27C279.089 231.364 279.354 231.409 279.619 231.402H285.997L313.826 231.547L360.939 231.824L392.702 232.065L401.335 232.161H403.578C404.092 232.161 404.343 232.161 404.343 232.161H403.578H401.335H392.702H360.939L313.826 232.016L285.997 231.908H279.619C279.268 231.922 278.918 231.864 278.592 231.739C278.262 231.604 277.968 231.398 277.734 231.137C277.499 230.876 277.33 230.567 277.238 230.234C277.166 229.918 277.141 229.593 277.163 229.27V228.379C277.163 227.174 277.163 225.969 277.163 224.765C277.163 222.356 277.163 219.946 277.163 217.537C277.163 216.333 277.163 215.128 277.163 213.923C277.139 213.603 277.139 213.281 277.163 212.96C277.21 212.605 277.353 212.269 277.577 211.984C277.793 211.693 278.079 211.457 278.411 211.296C278.742 211.134 279.11 211.052 279.481 211.057L384.282 211.611L402.388 211.731H404.343C404.687 211.731 405.026 211.811 405.332 211.965C405.637 212.118 405.899 212.339 406.097 212.61C406.45 213.134 406.593 213.764 406.498 214.381C406.498 214.947 406.498 215.514 406.498 216.056C406.498 218.248 406.498 220.26 406.498 222.079C406.498 225.692 406.41 228.463 406.385 230.39C406.354 230.761 406.214 231.115 405.981 231.412C405.748 231.709 405.432 231.935 405.069 232.065C404.832 232.206 404.559 232.281 404.28 232.281Z" fill="#E0E0E0"/>
<path d="M346.203 217.85H287.262V223.163H346.203V217.85Z" fill="#D3EEFF"/>
<path opacity="0.2" d="M346.203 217.85H287.262V223.163H346.203V217.85Z" fill="white"/>
<path d="M309.589 249.241L277.362 249.1L277.336 254.786L309.562 254.927L309.589 249.241Z" fill="#D3EEFF"/>
<path opacity="0.1" d="M309.589 249.241L277.362 249.1L277.336 254.786L309.562 254.927L309.589 249.241Z" fill="black"/>
<path d="M403.465 284.151C403.718 284.121 403.97 284.077 404.217 284.019C404.567 283.912 404.889 283.734 405.162 283.497C405.434 283.26 405.65 282.97 405.796 282.645C405.993 282.159 406.07 281.636 406.022 281.116C406.022 280.537 406.022 279.911 406.022 279.212C406.022 277.815 406.022 276.225 406.022 274.394V266.745C406.081 266.191 405.954 265.634 405.658 265.155C405.349 264.664 404.863 264.299 404.292 264.131C403.668 264.024 403.033 263.991 402.4 264.035H384.37L279.932 263.661C279.371 263.662 278.828 263.86 278.407 264.216C277.985 264.573 277.712 265.065 277.639 265.601C277.639 266.745 277.639 268.01 277.639 269.214C277.639 271.623 277.639 274.033 277.639 276.442C277.639 277.646 277.639 278.851 277.639 280.056C277.593 280.619 277.618 281.185 277.715 281.742C277.871 282.231 278.193 282.655 278.629 282.947C279.092 283.229 279.636 283.364 280.183 283.332H281.925H285.546L313.275 283.465L360.224 283.742L391.875 283.983L400.483 284.079H402.726H403.478H402.726H400.483H391.875H360.224L313.25 284.031L285.521 283.934H280.07C279.392 283.973 278.72 283.8 278.153 283.441C277.583 283.061 277.167 282.503 276.975 281.863C276.863 281.25 276.829 280.627 276.875 280.007C276.875 278.803 276.875 277.598 276.875 276.394C276.875 273.984 276.875 271.575 276.875 269.166C276.875 267.962 276.875 266.757 276.875 265.552C276.966 264.864 277.316 264.23 277.858 263.771C278.4 263.312 279.097 263.059 279.82 263.059L384.257 263.613L402.288 263.745C402.959 263.706 403.633 263.75 404.292 263.878C404.943 264.082 405.492 264.512 405.834 265.083C406.158 265.613 406.298 266.229 406.235 266.841C406.235 267.407 406.235 267.962 406.235 268.516C406.235 270.696 406.235 272.696 406.235 274.539C406.235 276.382 406.235 277.936 406.235 279.357C406.235 280.044 406.235 280.682 406.235 281.272C406.28 281.811 406.19 282.352 405.971 282.85C405.809 283.183 405.573 283.477 405.282 283.714C404.99 283.951 404.648 284.125 404.28 284.224C404.006 284.245 403.73 284.221 403.465 284.151Z" fill="#E0E0E0"/>
<path d="M309.346 303.362L277.12 303.221L277.093 308.907L309.319 309.047L309.346 303.362Z" fill="#D3EEFF"/>
<path opacity="0.1" d="M309.346 303.362L277.12 303.221L277.093 308.907L309.319 309.047L309.346 303.362Z" fill="black"/>
<path d="M403.215 338.249C403.468 338.221 403.719 338.176 403.967 338.117C404.315 338.011 404.636 337.834 404.908 337.599C405.18 337.365 405.397 337.077 405.545 336.756C405.742 336.269 405.819 335.746 405.771 335.226C405.771 334.636 405.771 334.021 405.771 333.311C405.771 331.925 405.771 330.323 405.771 328.492V320.843C405.831 320.289 405.703 319.732 405.408 319.253C405.091 318.771 404.607 318.413 404.042 318.241C403.418 318.13 402.783 318.093 402.15 318.133H384.119L279.682 317.759C279.12 317.761 278.578 317.958 278.156 318.315C277.734 318.671 277.462 319.163 277.389 319.699C277.389 320.903 277.389 322.108 277.389 323.313C277.389 325.722 277.389 328.131 277.389 330.54C277.389 331.745 277.389 332.949 277.389 334.154C277.342 334.713 277.367 335.275 277.464 335.828C277.614 336.32 277.937 336.746 278.379 337.033C278.839 337.322 279.384 337.457 279.932 337.418H285.383L313.112 337.563L360.062 337.84L391.712 338.081L400.32 338.177H402.563C403.064 338.177 403.315 338.177 403.315 338.177C403.315 338.177 403.064 338.177 402.563 338.177H400.32H391.712H360.062L313.112 338.045L285.383 337.936H279.932C279.254 337.98 278.58 337.807 278.015 337.442C277.445 337.063 277.029 336.505 276.837 335.864C276.725 335.252 276.691 334.629 276.737 334.009C276.737 332.805 276.737 331.6 276.737 330.396C276.737 327.986 276.737 325.577 276.737 323.168C276.737 321.963 276.737 320.759 276.737 319.494C276.826 318.806 277.173 318.173 277.713 317.714C278.253 317.255 278.948 317.001 279.669 317L384.107 317.555L402.137 317.687C402.809 317.648 403.483 317.692 404.142 317.82C404.793 318.024 405.342 318.453 405.683 319.024C406.007 319.555 406.148 320.171 406.084 320.783C406.084 321.349 406.084 321.915 406.084 322.457C406.084 324.638 406.084 326.637 406.084 328.48C406.084 330.323 406.084 331.877 406.084 333.299C406.084 333.985 406.084 334.624 406.084 335.214C406.132 335.753 406.042 336.295 405.821 336.792C405.658 337.124 405.423 337.419 405.131 337.656C404.839 337.893 404.498 338.067 404.129 338.165C403.836 338.262 403.522 338.291 403.215 338.249Z" fill="#E0E0E0"/>
<path d="M344.945 271.222L286.005 270.965L285.98 276.277L344.92 276.534L344.945 271.222Z" fill="#D3EEFF"/>
<path opacity="0.2" d="M344.945 271.222L286.005 270.965L285.98 276.277L344.92 276.534L344.945 271.222Z" fill="white"/>
<path d="M291.335 328.42C291.298 328.904 291.113 329.368 290.805 329.753C290.497 330.138 290.077 330.427 289.6 330.585C289.122 330.743 288.606 330.763 288.117 330.641C287.627 330.52 287.186 330.264 286.846 329.903C286.507 329.543 286.286 329.095 286.209 328.615C286.132 328.135 286.204 327.643 286.415 327.202C286.626 326.76 286.967 326.388 287.396 326.132C287.825 325.875 288.323 325.745 288.829 325.758C289.527 325.795 290.181 326.096 290.65 326.594C291.119 327.092 291.365 327.748 291.335 328.42Z" fill="#D3EEFF"/>
<path d="M299.316 328.456C299.341 328.796 299.293 329.136 299.174 329.457C299.056 329.778 298.87 330.072 298.629 330.321C298.387 330.57 298.095 330.769 297.77 330.904C297.446 331.04 297.095 331.11 296.741 331.11C296.387 331.11 296.037 331.04 295.712 330.904C295.387 330.769 295.095 330.57 294.854 330.321C294.612 330.072 294.426 329.778 294.308 329.457C294.19 329.136 294.142 328.796 294.166 328.456C294.142 328.116 294.19 327.776 294.308 327.455C294.426 327.134 294.612 326.84 294.854 326.591C295.095 326.342 295.387 326.143 295.712 326.008C296.037 325.872 296.387 325.802 296.741 325.802C297.095 325.802 297.446 325.872 297.77 326.008C298.095 326.143 298.387 326.342 298.629 326.591C298.87 326.84 299.056 327.134 299.174 327.455C299.293 327.776 299.341 328.116 299.316 328.456Z" fill="#D3EEFF"/>
<path d="M307.31 328.492C307.273 328.977 307.089 329.44 306.781 329.825C306.472 330.21 306.053 330.499 305.575 330.657C305.097 330.815 304.582 330.835 304.092 330.714C303.603 330.592 303.161 330.336 302.822 329.976C302.483 329.615 302.261 329.167 302.185 328.687C302.108 328.207 302.18 327.716 302.391 327.274C302.602 326.833 302.943 326.461 303.372 326.204C303.801 325.947 304.299 325.817 304.804 325.83C305.501 325.87 306.154 326.172 306.622 326.669C307.091 327.167 307.338 327.821 307.31 328.492Z" fill="#D3EEFF"/>
<path d="M315.292 328.529C315.255 329.013 315.071 329.477 314.762 329.861C314.454 330.246 314.035 330.536 313.557 330.694C313.079 330.852 312.563 330.871 312.074 330.75C311.585 330.629 311.143 330.372 310.804 330.012C310.465 329.652 310.243 329.204 310.166 328.724C310.09 328.243 310.161 327.752 310.372 327.311C310.583 326.869 310.925 326.497 311.354 326.24C311.783 325.984 312.281 325.853 312.786 325.866C313.483 325.907 314.135 326.208 314.604 326.706C315.072 327.203 315.319 327.858 315.292 328.529Z" fill="#D3EEFF"/>
<path d="M323.274 328.552C323.239 329.038 323.057 329.502 322.75 329.889C322.443 330.276 322.024 330.567 321.546 330.727C321.069 330.886 320.552 330.908 320.062 330.788C319.572 330.668 319.129 330.412 318.789 330.052C318.448 329.692 318.225 329.244 318.148 328.763C318.07 328.283 318.141 327.791 318.352 327.349C318.563 326.907 318.904 326.534 319.334 326.277C319.763 326.019 320.262 325.889 320.768 325.902C321.462 325.943 322.113 326.242 322.581 326.737C323.049 327.232 323.298 327.884 323.274 328.552Z" fill="#D3EEFF"/>
<path d="M331.268 328.589C331.233 329.071 331.053 329.534 330.749 329.919C330.445 330.305 330.03 330.597 329.556 330.759C329.081 330.92 328.568 330.945 328.079 330.83C327.59 330.715 327.147 330.466 326.804 330.112C326.461 329.758 326.233 329.315 326.148 328.838C326.063 328.361 326.125 327.871 326.327 327.427C326.528 326.984 326.86 326.607 327.282 326.342C327.703 326.078 328.196 325.937 328.699 325.938C329.405 325.964 330.071 326.257 330.553 326.753C331.034 327.25 331.291 327.91 331.268 328.589Z" fill="#D3EEFF"/>
<path d="M339.249 328.625C339.274 328.964 339.226 329.305 339.107 329.626C338.989 329.947 338.803 330.241 338.562 330.49C338.32 330.739 338.028 330.937 337.703 331.073C337.379 331.209 337.028 331.279 336.674 331.279C336.32 331.279 335.97 331.209 335.645 331.073C335.32 330.937 335.028 330.739 334.787 330.49C334.545 330.241 334.36 329.947 334.241 329.626C334.123 329.305 334.075 328.964 334.099 328.625C334.075 328.285 334.123 327.944 334.241 327.623C334.36 327.302 334.545 327.008 334.787 326.759C335.028 326.51 335.32 326.312 335.645 326.176C335.97 326.041 336.32 325.97 336.674 325.97C337.028 325.97 337.379 326.041 337.703 326.176C338.028 326.312 338.32 326.51 338.562 326.759C338.803 327.008 338.989 327.302 339.107 327.623C339.226 327.944 339.274 328.285 339.249 328.625Z" fill="#D3EEFF"/>
<path d="M347.231 328.661C347.197 329.144 347.016 329.606 346.712 329.992C346.408 330.377 345.993 330.669 345.519 330.831C345.045 330.993 344.531 331.018 344.043 330.903C343.554 330.788 343.11 330.538 342.767 330.184C342.424 329.83 342.196 329.387 342.111 328.91C342.027 328.433 342.089 327.943 342.29 327.499C342.491 327.056 342.823 326.679 343.245 326.414C343.666 326.15 344.159 326.01 344.662 326.011C345.368 326.036 346.035 326.329 346.516 326.826C346.997 327.322 347.255 327.982 347.231 328.661Z" fill="#D3EEFF"/>
<path d="M355.213 328.697C355.178 329.182 354.996 329.647 354.689 330.034C354.382 330.42 353.963 330.712 353.485 330.871C353.007 331.031 352.491 331.052 352.001 330.932C351.511 330.813 351.068 330.557 350.727 330.197C350.387 329.837 350.164 329.389 350.087 328.908C350.009 328.427 350.08 327.936 350.291 327.493C350.502 327.051 350.843 326.678 351.273 326.421C351.702 326.164 352.201 326.034 352.707 326.047C353.401 326.087 354.052 326.387 354.52 326.882C354.988 327.377 355.237 328.028 355.213 328.697Z" fill="#D3EEFF"/>
<g opacity="0.2">
<path d="M291.335 328.42C291.298 328.904 291.113 329.368 290.805 329.753C290.497 330.138 290.077 330.427 289.6 330.585C289.122 330.743 288.606 330.763 288.117 330.641C287.627 330.52 287.186 330.264 286.846 329.903C286.507 329.543 286.286 329.095 286.209 328.615C286.132 328.135 286.204 327.643 286.415 327.202C286.626 326.76 286.967 326.388 287.396 326.132C287.825 325.875 288.323 325.745 288.829 325.758C289.527 325.795 290.181 326.096 290.65 326.594C291.119 327.092 291.365 327.748 291.335 328.42Z" fill="white"/>
<path d="M299.316 328.456C299.341 328.796 299.293 329.136 299.174 329.457C299.056 329.778 298.87 330.072 298.629 330.321C298.387 330.57 298.095 330.769 297.77 330.904C297.446 331.04 297.095 331.11 296.741 331.11C296.387 331.11 296.037 331.04 295.712 330.904C295.387 330.769 295.095 330.57 294.854 330.321C294.612 330.072 294.427 329.778 294.308 329.457C294.19 329.136 294.142 328.796 294.166 328.456C294.142 328.116 294.19 327.776 294.308 327.455C294.427 327.134 294.612 326.84 294.854 326.591C295.095 326.342 295.387 326.143 295.712 326.008C296.037 325.872 296.387 325.802 296.741 325.802C297.095 325.802 297.446 325.872 297.77 326.008C298.095 326.143 298.387 326.342 298.629 326.591C298.87 326.84 299.056 327.134 299.174 327.455C299.293 327.776 299.341 328.116 299.316 328.456Z" fill="white"/>
<path d="M307.31 328.492C307.273 328.977 307.089 329.44 306.781 329.825C306.472 330.21 306.053 330.499 305.575 330.657C305.097 330.815 304.582 330.835 304.092 330.714C303.603 330.592 303.161 330.336 302.822 329.976C302.483 329.615 302.261 329.167 302.185 328.687C302.108 328.207 302.18 327.716 302.391 327.274C302.602 326.833 302.943 326.461 303.372 326.204C303.801 325.947 304.299 325.817 304.804 325.83C305.501 325.87 306.154 326.172 306.622 326.669C307.091 327.167 307.338 327.821 307.31 328.492Z" fill="white"/>
<path d="M315.292 328.528C315.255 329.013 315.071 329.476 314.762 329.861C314.454 330.246 314.035 330.535 313.557 330.693C313.079 330.851 312.563 330.871 312.074 330.75C311.585 330.629 311.143 330.372 310.804 330.012C310.465 329.652 310.243 329.204 310.166 328.723C310.09 328.243 310.161 327.752 310.372 327.31C310.583 326.869 310.925 326.497 311.354 326.24C311.783 325.983 312.281 325.853 312.786 325.866C313.483 325.907 314.135 326.208 314.604 326.706C315.072 327.203 315.319 327.858 315.292 328.528Z" fill="white"/>
<path d="M323.273 328.552C323.239 329.038 323.057 329.502 322.75 329.889C322.443 330.276 322.024 330.567 321.546 330.727C321.068 330.886 320.552 330.908 320.062 330.788C319.572 330.668 319.129 330.412 318.788 330.052C318.448 329.692 318.225 329.244 318.148 328.763C318.07 328.283 318.141 327.791 318.352 327.349C318.563 326.907 318.904 326.534 319.334 326.277C319.763 326.019 320.262 325.889 320.767 325.902C321.462 325.943 322.113 326.242 322.581 326.737C323.049 327.232 323.298 327.884 323.273 328.552Z" fill="white"/>
<path d="M331.268 328.589C331.233 329.071 331.053 329.534 330.749 329.919C330.445 330.305 330.03 330.597 329.556 330.759C329.082 330.92 328.568 330.945 328.079 330.83C327.59 330.715 327.147 330.466 326.804 330.112C326.461 329.758 326.233 329.315 326.148 328.838C326.063 328.361 326.126 327.871 326.327 327.427C326.528 326.984 326.86 326.607 327.282 326.342C327.703 326.078 328.196 325.937 328.699 325.938C329.405 325.964 330.071 326.257 330.553 326.753C331.034 327.25 331.291 327.91 331.268 328.589Z" fill="white"/>
<path d="M339.249 328.625C339.274 328.964 339.226 329.305 339.107 329.626C338.989 329.947 338.804 330.241 338.562 330.49C338.32 330.739 338.028 330.937 337.704 331.073C337.379 331.209 337.028 331.279 336.674 331.279C336.32 331.279 335.97 331.209 335.645 331.073C335.32 330.937 335.028 330.739 334.787 330.49C334.545 330.241 334.36 329.947 334.241 329.626C334.123 329.305 334.075 328.964 334.099 328.625C334.075 328.285 334.123 327.944 334.241 327.623C334.36 327.302 334.545 327.008 334.787 326.759C335.028 326.51 335.32 326.312 335.645 326.176C335.97 326.041 336.32 325.97 336.674 325.97C337.028 325.97 337.379 326.041 337.704 326.176C338.028 326.312 338.32 326.51 338.562 326.759C338.804 327.008 338.989 327.302 339.107 327.623C339.226 327.944 339.274 328.285 339.249 328.625Z" fill="white"/>
<path d="M347.231 328.661C347.197 329.144 347.016 329.606 346.712 329.992C346.408 330.377 345.993 330.669 345.519 330.831C345.045 330.993 344.531 331.018 344.043 330.903C343.554 330.788 343.11 330.538 342.767 330.184C342.424 329.83 342.196 329.387 342.111 328.91C342.027 328.433 342.089 327.943 342.29 327.499C342.491 327.056 342.823 326.679 343.245 326.414C343.666 326.15 344.159 326.01 344.662 326.011C345.368 326.036 346.035 326.329 346.516 326.826C346.998 327.322 347.255 327.982 347.231 328.661Z" fill="white"/>
<path d="M355.212 328.697C355.178 329.182 354.996 329.647 354.689 330.033C354.382 330.42 353.963 330.711 353.485 330.871C353.007 331.031 352.491 331.052 352.001 330.932C351.511 330.812 351.068 330.556 350.727 330.197C350.387 329.837 350.164 329.389 350.087 328.908C350.009 328.427 350.08 327.935 350.291 327.493C350.502 327.051 350.843 326.678 351.273 326.421C351.702 326.164 352.201 326.034 352.706 326.047C353.401 326.087 354.052 326.387 354.52 326.882C354.988 327.377 355.237 328.028 355.212 328.697Z" fill="white"/>
</g>
<path d="M343.873 154.802C344.743 154.434 345.482 153.827 345.996 153.058C346.511 152.289 346.779 151.392 346.767 150.478C346.8 149.883 346.706 149.289 346.492 148.731C346.277 148.172 345.947 147.662 345.521 147.23C345.095 146.798 344.582 146.454 344.013 146.219C343.444 145.984 342.832 145.863 342.213 145.863C341.594 145.863 340.981 145.984 340.412 146.219C339.843 146.454 339.33 146.798 338.904 147.23C338.478 147.662 338.148 148.172 337.934 148.731C337.719 149.289 337.626 149.883 337.658 150.478C337.639 151.401 337.905 152.309 338.422 153.088C338.94 153.866 339.685 154.479 340.565 154.85C333.548 155.862 333.861 163.186 333.861 163.186L350.451 163.258C350.451 163.258 350.84 155.802 343.873 154.802Z" fill="#D3EEFF"/>
<path opacity="0.1" d="M343.873 154.802C344.743 154.434 345.482 153.827 345.996 153.058C346.511 152.289 346.779 151.392 346.767 150.478C346.8 149.883 346.706 149.289 346.492 148.731C346.277 148.172 345.947 147.662 345.521 147.23C345.095 146.798 344.582 146.454 344.013 146.219C343.444 145.984 342.832 145.863 342.213 145.863C341.594 145.863 340.981 145.984 340.412 146.219C339.843 146.454 339.33 146.798 338.904 147.23C338.478 147.662 338.148 148.172 337.934 148.731C337.719 149.289 337.626 149.883 337.658 150.478C337.639 151.401 337.905 152.309 338.422 153.088C338.94 153.866 339.685 154.479 340.565 154.85C333.548 155.862 333.861 163.186 333.861 163.186L350.451 163.258C350.451 163.258 350.84 155.802 343.873 154.802Z" fill="black"/>
<path d="M370.83 167.982L311.702 167.724L311.67 174.518L370.798 174.776L370.83 167.982Z" fill="#D3EEFF"/>
<path opacity="0.2" d="M370.83 167.982L311.702 167.724L311.67 174.518L370.798 174.776L370.83 167.982Z" fill="white"/>
<path d="M153.455 203.191H152.866L151.162 203.311C150.239 203.364 149.322 203.481 148.418 203.66C147.832 203.739 147.25 203.848 146.676 203.986L144.734 204.504C141.428 205.479 138.309 206.963 135.499 208.9C131.786 211.491 128.686 214.808 126.402 218.633C125.06 220.838 123.992 223.187 123.22 225.632C122.408 228.289 121.941 231.032 121.829 233.799C121.754 235.253 121.779 236.709 121.904 238.16C121.904 238.895 122.117 239.629 122.217 240.376C122.302 241.129 122.448 241.874 122.656 242.605C123.783 247.438 126.069 251.952 129.332 255.786C132.595 259.619 136.745 262.667 141.451 264.685C144.857 266.098 148.507 266.886 152.214 267.01C156.043 267.212 159.876 266.684 163.491 265.456L164.594 265.058H164.744L164.869 265.131L180.67 272.84L180.206 273.226C178.515 268.19 176.886 263.312 175.307 258.626V258.445L175.445 258.313C179.278 254.601 182.123 250.056 183.74 245.062C185.204 240.497 185.631 235.682 184.993 230.944C184.425 226.734 183.016 222.668 180.845 218.971C178.974 215.795 176.559 212.944 173.703 210.539C171.347 208.635 168.739 207.039 165.947 205.792C163.835 204.917 161.635 204.251 159.381 203.805L156.875 203.407L155.058 203.275L153.956 203.203H153.58C153.705 203.189 153.831 203.189 153.956 203.203H155.071L156.888 203.275L159.394 203.624C161.675 204.037 163.905 204.679 166.047 205.539C168.887 206.771 171.542 208.363 173.941 210.274C176.85 212.668 179.315 215.519 181.234 218.706C183.467 222.443 184.918 226.563 185.506 230.836C186.198 235.647 185.8 240.545 184.341 245.195C182.714 250.292 179.825 254.934 175.921 258.722L175.996 258.409C177.575 263.095 179.216 267.973 180.92 272.997L181.158 273.731L180.444 273.382L164.644 265.685H164.92L163.792 266.082C160.107 267.329 156.203 267.869 152.302 267.672C148.515 267.534 144.788 266.717 141.313 265.263C134.684 262.534 129.169 257.79 125.613 251.76C123.977 248.974 122.781 245.97 122.067 242.846C121.871 242.096 121.725 241.336 121.629 240.569C121.528 239.81 121.365 239.063 121.328 238.316C120.989 234.03 121.46 229.721 122.719 225.596C123.51 223.118 124.608 220.74 125.989 218.513C128.327 214.653 131.492 211.315 135.274 208.72C138.13 206.778 141.301 205.304 144.659 204.359L146.626 203.877C147.205 203.748 147.79 203.648 148.38 203.576C149.294 203.413 150.22 203.317 151.149 203.287L152.866 203.227C153.061 203.201 153.258 203.189 153.455 203.191Z" fill="#003C43"/>
<path d="M160.597 231.282H158.279L153.267 224.512V220.067C153.267 220.067 149.683 219.85 150.109 225.668C150.535 231.486 150.109 230.005 150.109 230.005C150.109 230.005 142.503 230.005 141.877 230.667C141.25 231.33 141.213 238.389 141.125 242.328C141.077 243.277 141.361 244.215 141.93 244.992C142.5 245.769 143.324 246.341 144.27 246.616C144.535 246.687 144.809 246.723 145.085 246.725C146.989 246.725 156.675 245.243 156.675 245.243H160.672L160.597 231.282Z" fill="#003C43"/>
<path d="M167.225 230.089L165.797 245.315H161.837V230.402L167.225 230.089Z" fill="#003C43"/>
<path d="M214.451 540.067V529.768L195.242 529.635L195.079 545.21L196.27 545.295C201.57 545.62 223.234 546.102 226.793 545.042C230.752 543.861 214.451 540.067 214.451 540.067Z" fill="#FF9E6D"/>
<path d="M227.244 544.078C227.244 544.247 220.051 544.391 211.193 544.391C202.334 544.391 195.142 544.247 195.142 544.078C195.142 543.909 202.334 543.765 211.193 543.765C220.051 543.765 227.244 543.909 227.244 544.078Z" fill="#263238"/>
<path d="M214.789 542.175C214.626 542.091 214.789 541.549 215.177 540.97C215.566 540.392 216.092 540.151 216.217 540.272C216.343 540.392 216.079 540.85 215.704 541.344C215.328 541.838 214.952 542.259 214.789 542.175Z" fill="#263238"/>
<path d="M216.017 542.849C215.841 542.849 215.929 542.175 216.305 541.536C216.681 540.898 217.182 540.513 217.32 540.609C217.458 540.705 217.232 541.247 216.881 541.814C216.531 542.38 216.18 542.91 216.017 542.849Z" fill="#263238"/>
<path d="M200.931 544.03C200.856 544.03 200.567 543.813 200.154 543.355C199.649 542.767 199.087 542.226 198.475 541.741C197.873 541.279 197.156 540.976 196.395 540.862C195.806 540.79 195.43 540.862 195.392 540.79C195.355 540.717 195.718 540.464 196.407 540.416C197.317 540.398 198.204 540.688 198.913 541.235C199.578 541.756 200.138 542.389 200.567 543.102C200.856 543.632 201.006 543.982 200.931 544.03Z" fill="#263238"/>
<path d="M214.852 540.236C214.939 540.38 214.614 540.742 214.062 540.934C213.511 541.127 213.022 541.055 212.997 540.934C212.972 540.814 213.361 540.561 213.837 540.392C214.313 540.224 214.751 540.091 214.852 540.236Z" fill="#263238"/>
<path d="M214.551 539.236C214.551 539.416 214.05 539.561 213.398 539.573C212.747 539.585 212.233 539.44 212.245 539.272C212.258 539.103 212.772 538.947 213.398 538.935C214.025 538.922 214.526 539.067 214.551 539.236Z" fill="#263238"/>
<path d="M261.751 540.067V529.768L242.543 529.635L242.38 545.054L243.57 545.138C248.871 545.463 270.547 546.102 274.093 545.042C278.053 543.861 261.751 540.067 261.751 540.067Z" fill="#FF9E6D"/>
<path d="M274.544 544.102C274.544 544.271 267.365 544.415 258.493 544.415C249.622 544.415 242.455 544.271 242.455 544.102C242.455 543.934 249.635 543.789 258.493 543.789C267.352 543.789 274.544 543.934 274.544 544.102Z" fill="#263238"/>
<path d="M262.09 542.175C261.939 542.091 262.09 541.549 262.478 540.97C262.867 540.392 263.393 540.151 263.518 540.272C263.643 540.392 263.38 540.85 263.004 541.344C262.628 541.838 262.253 542.259 262.09 542.175Z" fill="#263238"/>
<path d="M263.318 542.849C263.155 542.849 263.23 542.175 263.618 541.536C264.007 540.898 264.495 540.513 264.633 540.609C264.771 540.705 264.533 541.247 264.182 541.814C263.831 542.38 263.493 542.91 263.318 542.849Z" fill="#263238"/>
<path d="M248.231 544.03C248.156 544.03 247.881 543.813 247.455 543.355C246.95 542.767 246.388 542.226 245.776 541.741C245.174 541.279 244.457 540.976 243.696 540.862C243.119 540.79 242.731 540.862 242.693 540.79C242.656 540.717 243.019 540.464 243.708 540.416C244.618 540.398 245.505 540.688 246.214 541.235C246.882 541.753 247.443 542.386 247.868 543.102C248.156 543.632 248.307 543.982 248.231 544.03Z" fill="#263238"/>
<path d="M262.152 540.236C262.24 540.38 261.914 540.742 261.363 540.934C260.812 541.127 260.323 541.055 260.298 540.934C260.273 540.814 260.661 540.561 261.137 540.392C261.614 540.224 262.052 540.091 262.152 540.236Z" fill="#263238"/>
<path d="M261.877 539.236C261.877 539.416 261.375 539.561 260.724 539.573C260.072 539.585 259.571 539.44 259.584 539.272C259.596 539.103 260.097 538.947 260.724 538.935C261.35 538.922 261.877 539.067 261.877 539.236Z" fill="#263238"/>
<path d="M332.521 234.221C332.019 233.727 330.779 233.968 330.779 233.968C330.903 233.274 330.903 232.565 330.779 231.872C330.553 231.197 328.975 231.33 328.975 231.33C328.902 230.762 328.902 230.187 328.975 229.619C328.987 229.493 328.959 229.367 328.894 229.257C328.829 229.147 328.73 229.059 328.611 229.005C327.864 228.712 327.062 228.573 326.256 228.595C325.291 227.933 329.2 222.669 330.654 220.982C332.107 219.296 331.844 217.983 330.553 217.983C329.664 217.983 325.103 223.042 323.7 224.741C322.296 226.439 318.575 231.161 318.449 227.391C318.324 223.62 316.745 220.778 315.756 220.296C314.766 219.814 313.713 220.946 314.252 221.994C314.725 223.185 315.021 224.434 315.129 225.704C315.265 226.716 315.218 227.743 314.991 228.74C314.576 230.594 314.01 232.415 313.3 234.185H313.199C313.199 234.185 285.859 259.397 283.879 261.192C282.113 262.806 246.577 259.276 239.448 258.554C237.025 258.213 234.579 258.052 232.13 258.072C229.035 258.204 228.484 258.626 225.402 258.662C217.617 258.745 209.851 259.401 202.171 260.625C198.694 261.194 195.445 262.67 192.781 264.891C190.116 267.113 188.137 269.996 187.06 273.225C179.88 294.788 163.616 345.826 160.747 374.496C158.579 378.276 156.621 382.164 154.883 386.144C152.866 391.42 153.354 391.601 154.031 391.721C155.86 392.046 157.94 382.578 158.717 384.867C159.494 387.156 154.77 396.154 156.687 396.419C159.193 396.756 161.186 386.782 161.424 385.987C161.662 385.192 162.902 385.445 162.677 386.192C162.313 387.252 158.792 398.491 161.248 398.852C162.602 399.045 162.752 396.672 162.752 396.672C162.752 396.672 165.258 385.915 166.398 386.132C167.538 386.349 166.323 392.697 165.747 394.817C165.17 396.937 165.972 398.009 167.15 397.491C167.952 397.13 169.869 390.685 170.395 388.589C170.921 386.493 172.237 380.687 174.004 384.048C175.771 387.409 178.452 389.36 179.555 389.408C179.803 389.381 180.037 389.282 180.227 389.126C180.417 388.969 180.554 388.762 180.62 388.53C180.686 388.298 180.678 388.052 180.598 387.825C180.517 387.597 180.368 387.398 180.169 387.252C179.22 386.362 178.406 385.348 177.75 384.241C177.166 383.378 176.742 382.424 176.497 381.422C175.992 379.424 175.699 377.382 175.62 375.327L175.42 374.122C178.226 360.763 186.308 321.554 197.974 296.51L202.76 305.978L204.84 312.989L192.085 343.26L246.49 342.574L238.37 312.531L248.231 281.212C258.894 281.441 286.272 281.826 290.833 279.839C296.572 277.43 326.256 241.388 326.256 241.388C328.191 239.943 330.043 238.399 331.806 236.762C331.806 236.762 333.611 235.305 332.521 234.221Z" fill="#FFBE9D"/>
<path d="M189.691 320.891C191.27 315.712 199.377 290.102 199.377 290.102C199.377 290.102 203.362 310.977 202.309 313.495C201.341 315.65 200.197 317.729 198.888 319.711C189.691 333.166 190.894 339.9 190.894 339.9L246.465 338.274C246.59 330.805 241.991 313.435 241.039 310.664C240.087 307.894 243.257 298.823 243.257 298.823C243.257 298.823 249.522 292.692 249.296 289.536C249.177 286.701 248.813 283.88 248.206 281.104L282.037 282.308L280.972 260.264L232.381 255.59C230.689 260.18 215.39 257.927 215.39 257.927C198.876 258.457 197.848 261.372 190.982 266.504C184.116 271.636 172.751 315.675 172.751 315.675L189.691 320.891Z" fill="#003C43"/>
<path d="M222.545 315.675C221.582 315.841 220.601 315.889 219.626 315.82C217.809 315.82 215.315 315.699 212.571 315.434C209.827 315.169 207.346 314.796 205.579 314.459C204.605 314.338 203.65 314.103 202.735 313.76C203.715 313.76 204.692 313.849 205.655 314.025C207.434 314.242 209.902 314.543 212.634 314.808C215.365 315.073 217.846 315.254 219.638 315.374C220.615 315.386 221.588 315.487 222.545 315.675Z" fill="#263238"/>
<path d="M226.354 311.134C225.391 311.588 224.372 311.924 223.322 312.134C218.323 313.397 213.165 313.985 207.998 313.881C206.928 313.914 205.859 313.817 204.815 313.591C205.87 313.463 206.934 313.411 207.998 313.435C209.965 313.375 212.671 313.242 215.654 312.905C218.636 312.567 221.292 312.086 223.171 311.7C224.215 311.432 225.28 311.243 226.354 311.134Z" fill="#263238"/>
<path d="M245.049 290.873C245.023 291.791 244.893 292.704 244.66 293.595C244.335 295.27 243.833 297.558 243.194 300.064C242.555 302.569 241.941 304.882 241.39 306.448C241.168 307.345 240.84 308.214 240.413 309.038C240.483 308.123 240.659 307.217 240.939 306.34C241.415 304.461 241.954 302.292 242.555 299.919C243.157 297.546 243.733 295.378 244.209 293.499C244.379 292.594 244.661 291.713 245.049 290.873Z" fill="#263238"/>
<path d="M190.28 317.819C187.382 317.389 184.521 316.749 181.722 315.904C178.863 315.261 176.057 314.416 173.327 313.375C176.225 313.812 179.085 314.452 181.885 315.29C184.745 315.93 187.552 316.776 190.28 317.819Z" fill="#263238"/>
<path d="M248.808 280.839C248.335 280.917 247.852 280.917 247.379 280.839C246.071 280.71 244.785 280.414 243.558 279.959C241.508 279.219 239.642 278.074 238.08 276.599C236.517 275.124 235.293 273.352 234.486 271.395C233.594 269.242 233.213 266.925 233.371 264.613C233.427 262.706 234.02 260.849 235.087 259.24C235.838 258.157 236.96 257.36 238.258 256.988C238.604 256.896 238.963 256.851 239.323 256.855C239.573 256.855 239.698 256.855 239.698 256.855C239.698 256.855 239.172 256.855 238.333 257.18C237.142 257.603 236.132 258.396 235.463 259.433C233.759 262.011 233.283 266.721 235.1 271.118C235.946 273.191 237.269 275.052 238.972 276.562C240.367 277.798 241.973 278.792 243.721 279.502C245.36 280.125 247.066 280.573 248.808 280.839Z" fill="#263238"/>
<path d="M278.015 281.875C277.702 278.181 277.601 274.473 277.714 270.768C277.616 267.067 277.733 263.363 278.065 259.674C278.378 263.364 278.479 267.068 278.365 270.768C278.471 274.474 278.354 278.182 278.015 281.875Z" fill="#263238"/>
<path d="M232.055 256.94C232.193 254.253 232.481 251.218 232.481 251.218C232.481 251.218 239.398 250.483 239.811 243.617C240.225 236.751 239.811 220.91 239.811 220.91L227.281 214.743L213.373 225.259L215.516 259.59L228.271 260.373C229.246 260.399 230.192 260.052 230.902 259.408C231.611 258.765 232.026 257.877 232.055 256.94Z" fill="#FFBE9D"/>
<path d="M233.296 238.184C233.296 238.184 233.296 238.317 233.183 238.473C233.09 238.587 232.969 238.677 232.832 238.736C232.694 238.794 232.544 238.82 232.394 238.81C231.592 238.81 230.815 237.919 230.539 236.883C230.408 236.381 230.408 235.855 230.539 235.353C230.565 235.134 230.647 234.924 230.778 234.744C230.91 234.563 231.086 234.416 231.291 234.317C231.459 234.25 231.649 234.25 231.817 234.317C231.942 234.377 232.043 234.474 232.105 234.594C232.193 234.799 232.105 234.932 232.105 234.92C232.105 234.908 232.105 234.799 231.98 234.679C231.915 234.592 231.818 234.532 231.71 234.51C231.601 234.488 231.488 234.505 231.391 234.558C231.237 234.648 231.11 234.773 231.02 234.922C230.93 235.072 230.881 235.241 230.877 235.413C230.772 235.862 230.772 236.327 230.877 236.775C231.128 237.714 231.805 238.473 232.406 238.545C232.524 238.561 232.643 238.553 232.758 238.522C232.872 238.49 232.978 238.437 233.07 238.365C233.221 238.268 233.271 238.172 233.296 238.184Z" fill="#EB996E"/>
<path d="M244.109 217.2C243.144 214.044 239.648 212.478 236.466 211.611C231.617 210.286 226.379 209.707 221.643 211.382C216.907 213.056 211.218 215.995 211.218 221.019C208.424 220.802 206.82 223.151 205.717 226.066C205.012 227.842 204.59 229.71 204.464 231.607C204.113 238.184 202.196 247.267 197.761 252.085C195.255 254.771 191.784 256.626 190.356 259.975C189.103 262.878 189.754 266.323 188.589 269.262C187.549 271.852 185.256 273.695 183.577 275.948C181.866 278.503 180.86 281.435 180.651 284.467C180.443 287.499 181.04 290.533 182.386 293.282C183.742 295.961 185.651 298.346 187.997 300.293C190.343 302.24 193.077 303.707 196.032 304.605C201.884 306.317 208.126 306.376 214.012 304.774C218.43 303.758 222.551 301.794 226.066 299.028C229.662 296.204 232.133 292.272 233.058 287.898C233.947 282.983 232.519 277.984 231.454 273.093C228.121 257.638 229.073 256.831 233.283 242.484C233.383 242.231 233.434 241.966 233.509 241.713C233.584 241.461 233.622 241.34 233.672 241.147C233.791 240.58 233.854 240.003 233.86 239.425C233.245 239.645 232.577 239.691 231.936 239.559C231.294 239.426 230.705 239.121 230.238 238.678C229.77 238.206 229.444 237.62 229.294 236.984C229.144 236.348 229.176 235.684 229.386 235.064C229.682 234.386 230.123 233.775 230.679 233.27C231.236 232.766 231.897 232.38 232.619 232.137C234.01 231.583 235.501 231.294 236.867 230.679C239.761 229.354 241.766 226.608 243.132 223.729C244.255 221.734 244.601 219.419 244.109 217.2Z" fill="#263238"/>
<path d="M233.797 238.509C234.062 238.885 234.28 239.29 234.448 239.714C234.824 240.473 235.326 241.545 235.877 242.786L235.977 243.014H235.714L234.461 243.123C233.596 243.123 232.87 243.279 232.018 243.267C231.943 243.251 231.875 243.218 231.818 243.169C231.761 243.121 231.717 243.059 231.692 242.99C231.655 242.881 231.655 242.763 231.692 242.653C231.721 242.491 231.759 242.33 231.805 242.171L232.03 241.316C232.144 240.745 232.32 240.188 232.556 239.654C232.533 240.235 232.445 240.813 232.293 241.376L232.118 242.231C232.055 242.521 231.942 242.966 232.118 242.93C232.744 242.93 233.634 242.798 234.461 242.749L235.714 242.641L235.551 242.906C235.012 241.701 234.561 240.569 234.298 239.786C234.067 239.386 233.898 238.956 233.797 238.509Z" fill="#FD7401"/>
<path d="M190.894 339.9L246.465 338.274L270.648 429.028L266.199 533.128H236.817L240.413 431.244L218.924 368.063L222.232 537.164L192.536 537.585L189.416 378.64C189.278 374.219 187.774 364.257 188.338 359.872L190.894 339.9Z" fill="#D3EEFF"/>
<path d="M226.317 369.352C225.407 369.407 224.494 369.355 223.598 369.196C221.918 369.003 219.626 368.665 217.107 368.184C214.588 367.702 212.333 367.148 210.704 366.702C209.833 366.518 208.991 366.226 208.198 365.835C208.198 365.654 212.283 366.594 217.295 367.569C222.307 368.545 226.342 369.171 226.317 369.352Z" fill="#455A64"/>
<path d="M265.899 527.419C265.899 527.587 259.245 527.732 251.038 527.732C242.831 527.732 236.165 527.587 236.165 527.419C236.165 527.25 242.818 527.105 251.038 527.105C259.258 527.105 265.899 527.238 265.899 527.419Z" fill="#455A64"/>
<path d="M221.969 532.767C221.969 532.948 215.503 533.08 207.534 533.08C199.565 533.08 193.112 532.948 193.112 532.767C193.112 532.586 199.578 532.454 207.534 532.454C215.491 532.454 221.969 532.598 221.969 532.767Z" fill="#455A64"/>
<path d="M218.134 532.333C217.959 532.333 217.182 495.388 216.393 449.819C215.603 404.249 215.14 367.28 215.303 367.28C215.466 367.28 216.267 404.213 217.044 449.807C217.821 495.4 218.322 532.333 218.134 532.333Z" fill="#455A64"/>
<path d="M261.952 527.418C261.938 527.254 261.938 527.089 261.952 526.925V525.479C261.952 524.178 262.052 522.311 262.127 519.938C262.303 515.12 262.553 508.121 262.867 499.544C263.543 482.294 264.495 458.516 265.535 432.268C265.535 432.015 265.535 431.774 265.535 431.557V431.641C258.957 406.345 253.005 383.385 248.683 366.774L243.671 347.127C243.094 344.826 242.656 343.032 242.342 341.779C242.192 341.189 242.092 340.731 242.004 340.381C241.955 340.225 241.926 340.063 241.916 339.9C241.981 340.051 242.032 340.209 242.067 340.369C242.167 340.707 242.292 341.164 242.468 341.743C242.806 342.947 243.295 344.778 243.921 347.067C245.174 351.717 246.941 358.414 249.146 366.666C253.507 383.265 259.521 406.164 266.187 431.497V431.581C266.187 431.798 266.187 432.051 266.187 432.292C265.072 458.54 264.057 482.307 263.318 499.556C262.929 508.145 262.603 515.096 262.378 519.938C262.253 522.347 262.152 524.178 262.09 525.479C262.09 526.093 262.014 526.575 262.002 526.925C262.004 527.09 261.987 527.256 261.952 527.418Z" fill="#455A64"/>
<path d="M252.366 429.437C250.256 430.104 248.082 430.568 245.876 430.822C243.169 431.268 240.864 431.581 239.824 431.629V431.388C240.162 431.485 240.338 431.545 240.338 431.593C240.338 431.641 240.125 431.593 239.774 431.593H239.022L239.774 431.376C240.751 431.099 243.057 430.642 245.763 430.172C247.934 429.719 250.145 429.473 252.366 429.437Z" fill="#455A64"/>
<path d="M251.853 432.894C249.898 432.98 247.94 432.896 246.001 432.641C244.044 432.603 242.094 432.397 240.175 432.027C244.091 431.72 248.032 432.012 251.853 432.894Z" fill="#455A64"/>
<path opacity="0.2" d="M190.656 341.815C191.314 342.628 192.143 343.298 193.089 343.781C194.035 344.265 195.076 344.551 196.144 344.622C198.382 344.877 200.646 344.836 202.873 344.501C217.22 342.972 232.419 341.562 246.465 338.274C228.284 339.249 209.075 338.924 190.894 339.9L190.706 341.394" fill="black"/>
<g opacity="0.2">
<path d="M209.388 366.449L219.638 404.683L218.924 368.063L209.388 366.449Z" fill="black"/>
</g>
</svg>
